<svg xmlns="http://www.w3.org/2000/svg" xmlns:xlink="http://www.w3.org/1999/xlink" width="500" zoomAndPan="magnify" viewBox="0 0 375 374.999991" height="500" preserveAspectRatio="xMidYMid meet" version="1.0"><path fill="#de1b22" d="M 285.417969 147.445312 L 269.878906 148.207031 L 235.820312 149.878906 L 225.914062 150.363281 L 212.101562 151.039062 L 177.902344 152.710938 C 174.066406 152.898438 172.339844 147.984375 175.441406 145.714844 C 193.464844 132.503906 213.378906 123.316406 233.980469 117.019531 C 239.328125 115.386719 244.71875 113.941406 250.152344 112.683594 C 253.84375 111.824219 257.542969 111.042969 261.25 110.339844 C 262.40625 110.121094 263.5625 109.910156 264.71875 109.707031 C 263.296875 107.960938 261.816406 106.25 260.273438 104.574219 C 258.632812 102.789062 256.953125 101.066406 255.230469 99.40625 C 247.460938 100.90625 240.089844 102.667969 233.148438 104.589844 C 184.828125 117.957031 156.882812 139.335938 156.449219 139.675781 C 137.953125 145.898438 121.109375 147.964844 83.769531 153.300781 C 24.332031 161.796875 13.011719 170.292969 7.351562 192.949219 C 7.351562 192.949219 -0.144531 200.445312 0.113281 221.539062 C 0.226562 230.820312 7.824219 238.257812 17.101562 238.257812 L 63.757812 238.257812 C 61.667969 233.199219 60.625 227.933594 60.632812 222.457031 C 60.632812 199.621094 79.132812 181.109375 101.953125 181.109375 C 124.777344 181.109375 143.265625 199.621094 143.265625 222.457031 C 143.273438 227.929688 142.234375 233.199219 140.140625 238.257812 L 278.132812 238.257812 C 292.664062 210.171875 295.203125 177.296875 285.417969 147.445312 Z M 62.804688 172.671875 C 61.070312 178.117188 53.171875 193.484375 19.179688 194 C 18.949219 194 18.730469 193.953125 18.519531 193.859375 C 18.308594 193.765625 18.128906 193.632812 17.976562 193.457031 C 17.824219 193.285156 17.71875 193.085938 17.652344 192.863281 C 17.589844 192.640625 17.574219 192.417969 17.605469 192.1875 C 18.152344 188.640625 20.238281 180.679688 28.171875 175.320312 C 36.914062 169.410156 55.507812 170.210938 61.421875 170.636719 C 61.660156 170.65625 61.882812 170.722656 62.089844 170.84375 C 62.296875 170.964844 62.46875 171.125 62.601562 171.324219 C 62.738281 171.519531 62.820312 171.738281 62.855469 171.976562 C 62.890625 172.210938 62.875 172.445312 62.804688 172.671875 Z M 62.804688 172.671875 " fill-opacity="1" fill-rule="nonzero"/><path fill="#454545" d="M 136.441406 222.453125 C 136.441406 223.585938 136.386719 224.710938 136.277344 225.839844 C 136.167969 226.964844 136 228.082031 135.78125 229.1875 C 135.558594 230.296875 135.285156 231.394531 134.957031 232.476562 C 134.628906 233.558594 134.25 234.621094 133.816406 235.664062 C 133.382812 236.710938 132.902344 237.730469 132.367188 238.726562 C 131.835938 239.726562 131.257812 240.695312 130.628906 241.632812 C 130 242.574219 129.328125 243.480469 128.613281 244.355469 C 127.894531 245.230469 127.136719 246.066406 126.335938 246.863281 C 125.539062 247.664062 124.703125 248.421875 123.828125 249.140625 C 122.957031 249.859375 122.046875 250.53125 121.109375 251.160156 C 120.167969 251.785156 119.203125 252.367188 118.203125 252.898438 C 117.207031 253.433594 116.1875 253.914062 115.144531 254.347656 C 114.101562 254.78125 113.039062 255.160156 111.957031 255.488281 C 110.875 255.816406 109.78125 256.09375 108.671875 256.3125 C 107.5625 256.535156 106.445312 256.699219 105.320312 256.808594 C 104.199219 256.921875 103.070312 256.976562 101.941406 256.976562 C 100.808594 256.976562 99.683594 256.921875 98.558594 256.808594 C 97.433594 256.699219 96.316406 256.535156 95.207031 256.3125 C 94.101562 256.09375 93.003906 255.816406 91.925781 255.488281 C 90.84375 255.160156 89.78125 254.78125 88.738281 254.347656 C 87.691406 253.914062 86.671875 253.433594 85.675781 252.898438 C 84.679688 252.367188 83.710938 251.785156 82.769531 251.160156 C 81.832031 250.53125 80.925781 249.859375 80.050781 249.140625 C 79.179688 248.421875 78.34375 247.664062 77.542969 246.863281 C 76.742188 246.066406 75.984375 245.230469 75.269531 244.355469 C 74.550781 243.480469 73.878906 242.574219 73.253906 241.632812 C 72.625 240.695312 72.042969 239.726562 71.511719 238.726562 C 70.980469 237.730469 70.496094 236.710938 70.0625 235.664062 C 69.632812 234.621094 69.25 233.558594 68.921875 232.476562 C 68.59375 231.394531 68.320312 230.296875 68.101562 229.1875 C 67.878906 228.082031 67.714844 226.964844 67.601562 225.839844 C 67.492188 224.710938 67.4375 223.585938 67.4375 222.453125 C 67.4375 221.324219 67.492188 220.195312 67.601562 219.070312 C 67.714844 217.945312 67.878906 216.828125 68.101562 215.71875 C 68.320312 214.609375 68.59375 213.515625 68.921875 212.433594 C 69.25 211.351562 69.632812 210.289062 70.0625 209.242188 C 70.496094 208.199219 70.980469 207.175781 71.511719 206.179688 C 72.042969 205.183594 72.625 204.214844 73.253906 203.273438 C 73.878906 202.335938 74.550781 201.425781 75.269531 200.554688 C 75.984375 199.679688 76.742188 198.84375 77.542969 198.042969 C 78.34375 197.242188 79.179688 196.484375 80.050781 195.769531 C 80.925781 195.050781 81.832031 194.378906 82.769531 193.75 C 83.710938 193.121094 84.679688 192.542969 85.675781 192.007812 C 86.671875 191.476562 87.691406 190.992188 88.738281 190.558594 C 89.78125 190.128906 90.84375 189.746094 91.925781 189.417969 C 93.003906 189.089844 94.101562 188.816406 95.207031 188.59375 C 96.316406 188.375 97.433594 188.207031 98.558594 188.097656 C 99.683594 187.988281 100.808594 187.933594 101.941406 187.933594 C 103.070312 187.933594 104.199219 187.988281 105.320312 188.097656 C 106.445312 188.207031 107.5625 188.375 108.671875 188.59375 C 109.78125 188.816406 110.875 189.089844 111.957031 189.417969 C 113.039062 189.746094 114.101562 190.128906 115.144531 190.558594 C 116.1875 190.992188 117.207031 191.476562 118.203125 192.007812 C 119.203125 192.542969 120.167969 193.121094 121.109375 193.75 C 122.046875 194.378906 122.957031 195.050781 123.828125 195.769531 C 124.703125 196.484375 125.539062 197.242188 126.335938 198.042969 C 127.136719 198.84375 127.894531 199.679688 128.609375 200.554688 C 129.328125 201.425781 130 202.335938 130.628906 203.273438 C 131.257812 204.214844 131.835938 205.183594 132.367188 206.179688 C 132.902344 207.175781 133.382812 208.199219 133.816406 209.242188 C 134.25 210.289062 134.628906 211.351562 134.957031 212.433594 C 135.285156 213.515625 135.558594 214.609375 135.78125 215.71875 C 136 216.828125 136.167969 217.945312 136.277344 219.070312 C 136.386719 220.195312 136.441406 221.324219 136.441406 222.453125 Z M 136.441406 222.453125 " fill-opacity="1" fill-rule="nonzero"/><path fill="#de1b22" d="M 304.746094 78.9375 C 293.722656 70.480469 281.675781 63.890625 268.605469 59.175781 C 272.25 61.429688 275.8125 63.882812 279.289062 66.542969 C 335.714844 109.742188 346.453125 190.527344 303.277344 246.980469 C 260.101562 303.433594 179.359375 314.179688 122.941406 270.980469 C 119.46875 268.320312 116.167969 265.523438 113.042969 262.585938 C 121.003906 273.980469 130.507812 283.894531 141.550781 292.332031 C 200.445312 337.425781 284.722656 326.210938 329.789062 267.28125 C 374.855469 208.355469 363.640625 124.03125 304.746094 78.9375 Z M 304.746094 78.9375 " fill-opacity="1" fill-rule="nonzero"/><path fill="#454545" d="M 107.414062 76.582031 C 98.058594 85.167969 90.222656 94.96875 83.910156 105.992188 C 86.542969 103.035156 89.316406 100.21875 92.230469 97.542969 C 140.046875 53.578125 214.421875 56.726562 258.355469 104.578125 C 302.289062 152.425781 299.148438 226.835938 251.324219 270.796875 C 248.382812 273.5 245.339844 276.027344 242.203125 278.375 C 253.714844 273.011719 264.136719 266.03125 273.480469 257.425781 C 323.390625 211.542969 326.675781 133.863281 280.816406 83.925781 C 234.960938 33.988281 157.328125 30.699219 107.414062 76.582031 Z M 107.414062 76.582031 " fill-opacity="1" fill-rule="nonzero"/></svg>