<svg xmlns="http://www.w3.org/2000/svg" xmlns:xlink="http://www.w3.org/1999/xlink" width="500" zoomAndPan="magnify" viewBox="0 0 375 374.999991" height="500" preserveAspectRatio="xMidYMid meet" version="1.0"><defs><clipPath id="6452720eff"><path d="M 56.402344 94.464844 L 318.902344 94.464844 L 318.902344 280.464844 L 56.402344 280.464844 Z M 56.402344 94.464844 " clip-rule="nonzero"/></clipPath><clipPath id="5b070645ee"><path d="M 190 173 L 204 173 L 204 186 L 190 186 Z M 190 173 " clip-rule="nonzero"/></clipPath><clipPath id="f96eaabe19"><path d="M 128.273438 146.527344 L 252.738281 149.425781 L 250.152344 260.394531 L 125.6875 257.496094 Z M 128.273438 146.527344 " clip-rule="nonzero"/></clipPath><clipPath id="813cab2468"><path d="M 128.273438 146.527344 L 252.738281 149.425781 L 249.839844 273.890625 L 125.375 270.992188 Z M 128.273438 146.527344 " clip-rule="nonzero"/></clipPath><clipPath id="a12f2d71f6"><path d="M 198 180 L 214 180 L 214 195 L 198 195 Z M 198 180 " clip-rule="nonzero"/></clipPath><clipPath id="c2999f8dcd"><path d="M 128.273438 146.527344 L 252.738281 149.425781 L 250.152344 260.394531 L 125.6875 257.496094 Z M 128.273438 146.527344 " clip-rule="nonzero"/></clipPath><clipPath id="5896ce7dee"><path d="M 128.273438 146.527344 L 252.738281 149.425781 L 249.839844 273.890625 L 125.375 270.992188 Z M 128.273438 146.527344 " clip-rule="nonzero"/></clipPath><clipPath id="46c8e8dd89"><path d="M 204 190 L 220 190 L 220 209 L 204 209 Z M 204 190 " clip-rule="nonzero"/></clipPath><clipPath id="6ff02d9e33"><path d="M 128.273438 146.527344 L 252.738281 149.425781 L 250.152344 260.394531 L 125.6875 257.496094 Z M 128.273438 146.527344 " clip-rule="nonzero"/></clipPath><clipPath id="995d1995ee"><path d="M 128.273438 146.527344 L 252.738281 149.425781 L 249.839844 273.890625 L 125.375 270.992188 Z M 128.273438 146.527344 " clip-rule="nonzero"/></clipPath><clipPath id="fd0a2de1bd"><path d="M 153 148 L 188 148 L 188 180 L 153 180 Z M 153 148 " clip-rule="nonzero"/></clipPath><clipPath id="b0b8c93111"><path d="M 128.273438 146.527344 L 252.738281 149.425781 L 250.152344 260.394531 L 125.6875 257.496094 Z M 128.273438 146.527344 " clip-rule="nonzero"/></clipPath><clipPath id="c6c27f4032"><path d="M 128.273438 146.527344 L 252.738281 149.425781 L 249.839844 273.890625 L 125.375 270.992188 Z M 128.273438 146.527344 " clip-rule="nonzero"/></clipPath><clipPath id="136d1e18b6"><path d="M 217 214 L 251 214 L 251 248 L 217 248 Z M 217 214 " clip-rule="nonzero"/></clipPath><clipPath id="9a0ca9618f"><path d="M 128.273438 146.527344 L 252.738281 149.425781 L 250.152344 260.394531 L 125.6875 257.496094 Z M 128.273438 146.527344 " clip-rule="nonzero"/></clipPath><clipPath id="7e82252ba6"><path d="M 128.273438 146.527344 L 252.738281 149.425781 L 249.839844 273.890625 L 125.375 270.992188 Z M 128.273438 146.527344 " clip-rule="nonzero"/></clipPath><clipPath id="8336f4654a"><path d="M 125 231 L 168 231 L 168 261 L 125 261 Z M 125 231 " clip-rule="nonzero"/></clipPath><clipPath id="b0af2a37af"><path d="M 128.273438 146.527344 L 252.738281 149.425781 L 250.152344 260.394531 L 125.6875 257.496094 Z M 128.273438 146.527344 " clip-rule="nonzero"/></clipPath><clipPath id="a5056cab2a"><path d="M 128.273438 146.527344 L 252.738281 149.425781 L 249.839844 273.890625 L 125.375 270.992188 Z M 128.273438 146.527344 " clip-rule="nonzero"/></clipPath><clipPath id="71834a673e"><path d="M 162 182 L 212 182 L 212 239 L 162 239 Z M 162 182 " clip-rule="nonzero"/></clipPath><clipPath id="b0dbb3533c"><path d="M 128.273438 146.527344 L 252.738281 149.425781 L 250.152344 260.394531 L 125.6875 257.496094 Z M 128.273438 146.527344 " clip-rule="nonzero"/></clipPath><clipPath id="6ad676b711"><path d="M 128.273438 146.527344 L 252.738281 149.425781 L 249.839844 273.890625 L 125.375 270.992188 Z M 128.273438 146.527344 " clip-rule="nonzero"/></clipPath><clipPath id="3bd879d40d"><path d="M 209 200 L 226 200 L 226 218 L 209 218 Z M 209 200 " clip-rule="nonzero"/></clipPath><clipPath id="3eec03934d"><path d="M 128.273438 146.527344 L 252.738281 149.425781 L 250.152344 260.394531 L 125.6875 257.496094 Z M 128.273438 146.527344 " clip-rule="nonzero"/></clipPath><clipPath id="880eec4390"><path d="M 128.273438 146.527344 L 252.738281 149.425781 L 249.839844 273.890625 L 125.375 270.992188 Z M 128.273438 146.527344 " clip-rule="nonzero"/></clipPath><clipPath id="91c32635bf"><path d="M 148 219 L 181 219 L 181 252 L 148 252 Z M 148 219 " clip-rule="nonzero"/></clipPath><clipPath id="863f481d1a"><path d="M 128.273438 146.527344 L 252.738281 149.425781 L 250.152344 260.394531 L 125.6875 257.496094 Z M 128.273438 146.527344 " clip-rule="nonzero"/></clipPath><clipPath id="82f80b185e"><path d="M 128.273438 146.527344 L 252.738281 149.425781 L 249.839844 273.890625 L 125.375 270.992188 Z M 128.273438 146.527344 " clip-rule="nonzero"/></clipPath></defs><g clip-path="url(#6452720eff)"><path fill="#ff3131" d="M 318.914062 199.15625 C 318.585938 191.726562 318.539062 184.21875 317.046875 176.898438 C 316.359375 173.871094 315.46875 170.726562 313.417969 168.300781 C 311.808594 166.300781 309.0625 165.945312 307.078125 164.441406 C 303.46875 161.183594 302.144531 155.601562 297.347656 153.691406 C 291.851562 151.519531 285.824219 152.308594 280.070312 151.707031 C 279.691406 151.082031 278.953125 149.839844 278.585938 149.214844 C 283.15625 149.125 287.742188 149.378906 292.3125 149.125 C 295.0625 148.921875 297.265625 146.175781 297.050781 143.464844 C 296.992188 140.554688 294.253906 138.089844 291.347656 138.3125 C 285.445312 138.230469 279.535156 138.199219 273.640625 138.375 C 267.425781 126.671875 261.816406 114.519531 253.808594 103.890625 C 250.863281 99.480469 245.214844 99 240.464844 98.097656 C 222.976562 95.578125 205.277344 95.210938 187.640625 94.472656 C 172.1875 95.097656 156.714844 95.558594 141.320312 97.238281 C 136.347656 97.863281 131.324219 98.445312 126.546875 100.003906 C 123.449219 100.976562 121.5625 103.800781 119.714844 106.269531 C 112.804688 116.394531 107.320312 127.378906 101.792969 138.296875 C 95.863281 138.246094 89.925781 138.253906 84.011719 138.304688 C 81.445312 138.132812 78.976562 139.964844 78.414062 142.464844 C 77.601562 145.433594 79.851562 148.832031 82.9375 149.109375 C 87.53125 149.414062 92.144531 149.117188 96.738281 149.222656 C 96.371094 149.835938 95.621094 151.085938 95.25 151.710938 C 89.488281 152.355469 83.417969 151.464844 77.941406 153.71875 C 73.152344 155.664062 71.851562 161.253906 68.210938 164.480469 C 66.230469 165.953125 63.515625 166.332031 61.914062 168.308594 C 59.6875 170.960938 58.785156 174.410156 58.109375 177.71875 C 56.761719 185.070312 56.671875 192.574219 56.402344 200.019531 L 56.402344 216.542969 C 56.914062 223.527344 57.335938 230.527344 58.414062 237.460938 C 57.714844 238.589844 57.019531 239.714844 56.402344 240.882812 L 56.402344 265.453125 C 57.183594 273.605469 64.566406 280.453125 72.820312 280.257812 C 80.304688 280.269531 87.800781 280.289062 95.289062 280.238281 C 102.90625 280.167969 109.839844 273.972656 110.894531 266.46875 C 111.273438 263.183594 111.039062 259.863281 111.078125 256.578125 C 162.097656 258.972656 213.191406 258.964844 264.210938 256.570312 C 264.34375 261.441406 263.5625 266.652344 265.933594 271.148438 C 268.597656 276.78125 274.753906 280.414062 280.957031 280.273438 C 288.515625 280.230469 296.070312 280.363281 303.628906 280.199219 C 311.410156 279.902344 318.015625 273.28125 318.917969 265.652344 L 318.917969 241.050781 C 318.34375 239.800781 317.636719 238.625 316.917969 237.46875 C 317.972656 230.566406 318.394531 223.59375 318.917969 216.644531 L 318.917969 199.15625 Z M 307.738281 192.996094 C 307.925781 198.53125 307.996094 204.0625 307.964844 209.609375 C 289.71875 210.777344 271.5 212.160156 253.234375 212.980469 C 253.5 208.460938 253.40625 203.445312 256.136719 199.597656 C 257.347656 197.835938 259.707031 198.523438 261.5 198.273438 C 277.007812 197.449219 292.367188 195.011719 307.738281 192.996094 Z M 125.84375 116.527344 C 127.785156 113.773438 129.148438 109.5625 133.125 109.441406 C 168.546875 104.375 204.617188 104.589844 240.101562 108.953125 C 241.988281 109.433594 244.480469 109.199219 245.671875 111.039062 C 250.375 117.265625 253.65625 124.398438 257.597656 131.121094 C 260.039062 135.878906 262.765625 140.527344 264.621094 145.566406 C 230.144531 138.441406 194.652344 137.253906 159.585938 139.175781 C 143.1875 140.3125 126.808594 142.0625 110.730469 145.542969 C 114.820312 135.425781 120.566406 126.054688 125.84375 116.527344 Z M 67.601562 192.984375 C 84.316406 195.246094 101.03125 197.746094 117.898438 198.523438 C 122.214844 201.820312 121.792969 208.09375 122.132812 212.980469 C 103.863281 212.140625 85.609375 210.828125 67.355469 209.578125 C 67.332031 204.054688 67.386719 198.511719 67.601562 192.984375 Z M 67.601562 192.984375 " fill-opacity="1" fill-rule="nonzero"/></g><g clip-path="url(#5b070645ee)"><g clip-path="url(#f96eaabe19)"><g clip-path="url(#813cab2468)"><path fill="#ffffff" d="M 195.839844 185.78125 L 203.703125 178.292969 L 199.785156 174.1875 C 199.589844 173.976562 199.359375 173.8125 199.097656 173.695312 C 198.835938 173.578125 198.558594 173.515625 198.273438 173.507812 C 197.984375 173.503906 197.707031 173.550781 197.441406 173.65625 C 197.175781 173.761719 196.9375 173.914062 196.730469 174.117188 L 190.351562 180.183594 C 190.625 180.425781 190.917969 180.625 191.167969 180.886719 Z M 195.839844 185.78125 " fill-opacity="1" fill-rule="nonzero"/></g></g></g><g clip-path="url(#a12f2d71f6)"><g clip-path="url(#c2999f8dcd)"><g clip-path="url(#5896ce7dee)"><path fill="#ffffff" d="M 204.222656 194.519531 L 212.785156 186.429688 C 213.007812 186.234375 213.179688 186 213.300781 185.734375 C 213.425781 185.464844 213.492188 185.183594 213.5 184.886719 C 213.503906 184.59375 213.453125 184.308594 213.339844 184.035156 C 213.230469 183.761719 213.070312 183.519531 212.859375 183.3125 L 210.398438 180.757812 C 210.203125 180.550781 209.972656 180.390625 209.714844 180.273438 C 209.453125 180.160156 209.179688 180.097656 208.894531 180.089844 C 208.613281 180.085938 208.335938 180.132812 208.070312 180.234375 C 207.804688 180.339844 207.570312 180.488281 207.367188 180.6875 L 198.867188 188.777344 Z M 204.222656 194.519531 " fill-opacity="1" fill-rule="nonzero"/></g></g></g><g clip-path="url(#46c8e8dd89)"><g clip-path="url(#6ff02d9e33)"><g clip-path="url(#995d1995ee)"><path fill="#ffffff" d="M 209.878906 200.332031 C 210.074219 200.539062 210.226562 200.773438 210.328125 201.039062 C 210.433594 201.304688 210.480469 201.578125 210.472656 201.863281 C 210.46875 202.148438 210.40625 202.421875 210.289062 202.679688 C 210.175781 202.941406 210.015625 203.167969 209.808594 203.363281 L 207.230469 205.804688 C 206.378906 206.59375 205.425781 207.226562 204.367188 207.703125 L 204.53125 207.878906 C 204.726562 208.085938 204.957031 208.246094 205.214844 208.359375 C 205.476562 208.476562 205.75 208.539062 206.035156 208.542969 C 206.316406 208.550781 206.59375 208.503906 206.859375 208.398438 C 207.125 208.296875 207.359375 208.144531 207.5625 207.949219 L 208.851562 206.71875 L 218.941406 197.253906 C 219.164062 197.058594 219.335938 196.824219 219.457031 196.558594 C 219.582031 196.289062 219.648438 196.007812 219.65625 195.710938 C 219.660156 195.417969 219.609375 195.132812 219.496094 194.859375 C 219.386719 194.585938 219.226562 194.34375 219.015625 194.136719 L 215.074219 190.03125 L 207.210938 197.515625 Z M 209.878906 200.332031 " fill-opacity="1" fill-rule="nonzero"/></g></g></g><g clip-path="url(#fd0a2de1bd)"><g clip-path="url(#b0b8c93111)"><g clip-path="url(#c6c27f4032)"><path fill="#ffffff" d="M 159.648438 175.109375 C 160.703125 175.96875 161.851562 176.675781 163.09375 177.230469 C 164.332031 177.789062 165.625 178.175781 166.964844 178.394531 C 168.308594 178.613281 169.65625 178.65625 171.007812 178.519531 C 172.363281 178.386719 173.675781 178.082031 174.949219 177.605469 C 175.347656 177.453125 175.757812 177.425781 176.175781 177.519531 C 176.589844 177.617188 176.945312 177.816406 177.242188 178.128906 L 178.535156 179.503906 C 179.683594 178.699219 180.945312 178.171875 182.324219 177.917969 C 183.703125 177.660156 185.070312 177.703125 186.429688 178.042969 L 187.761719 176.769531 L 183.445312 172.226562 C 183.152344 171.917969 182.964844 171.550781 182.890625 171.128906 C 182.816406 170.710938 182.863281 170.300781 183.03125 169.910156 C 183.320312 169.207031 183.558594 168.488281 183.742188 167.753906 C 183.925781 167.015625 184.058594 166.269531 184.132812 165.515625 C 184.207031 164.757812 184.226562 164.003906 184.191406 163.246094 C 184.15625 162.484375 184.066406 161.734375 183.917969 160.988281 C 183.773438 160.242188 183.574219 159.515625 183.320312 158.796875 C 183.066406 158.082031 182.761719 157.390625 182.40625 156.71875 C 182.050781 156.046875 181.652344 155.40625 181.203125 154.792969 C 180.753906 154.179688 180.261719 153.605469 179.726562 153.066406 C 178.871094 152.15625 177.921875 151.363281 176.875 150.679688 C 175.832031 150 174.722656 149.449219 173.550781 149.027344 C 172.375 148.605469 171.167969 148.328125 169.929688 148.191406 C 168.6875 148.054688 167.449219 148.066406 166.210938 148.222656 L 173.53125 155.890625 C 174.351562 156.738281 174.976562 157.710938 175.40625 158.808594 C 175.835938 159.910156 176.039062 161.046875 176.011719 162.226562 C 175.988281 163.347656 175.753906 164.421875 175.304688 165.445312 C 174.855469 166.472656 174.226562 167.375 173.417969 168.148438 C 172.996094 168.53125 172.542969 168.875 172.058594 169.167969 C 171.574219 169.464844 171.0625 169.710938 170.527344 169.910156 C 169.992188 170.105469 169.445312 170.25 168.882812 170.339844 C 168.320312 170.425781 167.753906 170.460938 167.1875 170.441406 C 166.617188 170.417969 166.054688 170.34375 165.503906 170.210938 C 164.949219 170.082031 164.414062 169.898438 163.894531 169.664062 C 163.375 169.425781 162.886719 169.144531 162.421875 168.8125 C 161.960938 168.480469 161.535156 168.105469 161.144531 167.691406 L 153.824219 160.023438 C 153.59375 161.425781 153.550781 162.835938 153.695312 164.25 C 153.839844 165.664062 154.167969 167.035156 154.679688 168.359375 C 155.191406 169.6875 155.867188 170.921875 156.710938 172.070312 C 157.554688 173.214844 158.53125 174.226562 159.648438 175.109375 Z M 159.648438 175.109375 " fill-opacity="1" fill-rule="nonzero"/></g></g></g><g clip-path="url(#136d1e18b6)"><g clip-path="url(#9a0ca9618f)"><g clip-path="url(#7e82252ba6)"><path fill="#ffffff" d="M 245.6875 221.992188 C 245.164062 221.433594 244.605469 220.917969 244.007812 220.441406 C 243.410156 219.964844 242.78125 219.535156 242.121094 219.148438 C 241.460938 218.765625 240.777344 218.433594 240.066406 218.148438 C 239.359375 217.863281 238.632812 217.632812 237.890625 217.457031 C 237.144531 217.28125 236.394531 217.160156 235.632812 217.09375 C 234.871094 217.027344 234.109375 217.015625 233.347656 217.058594 C 232.582031 217.105469 231.828125 217.207031 231.082031 217.363281 C 230.332031 217.519531 229.601562 217.730469 228.882812 217.992188 C 228.480469 218.148438 228.066406 218.179688 227.644531 218.082031 C 227.222656 217.988281 226.863281 217.78125 226.566406 217.46875 L 224.105469 214.890625 L 218.867188 219.765625 L 217.90625 220.683594 L 220.46875 223.371094 C 220.765625 223.683594 220.949219 224.046875 221.027344 224.46875 C 221.101562 224.890625 221.054688 225.296875 220.886719 225.6875 C 220.347656 226.933594 219.984375 228.226562 219.785156 229.566406 C 219.589844 230.90625 219.566406 232.25 219.722656 233.59375 C 219.878906 234.941406 220.207031 236.242188 220.707031 237.503906 C 221.203125 238.761719 221.859375 239.9375 222.664062 241.023438 C 223.503906 242.164062 224.480469 243.175781 225.589844 244.058594 C 226.695312 244.945312 227.902344 245.667969 229.199219 246.234375 C 230.5 246.796875 231.851562 247.183594 233.253906 247.390625 C 234.65625 247.597656 236.058594 247.621094 237.46875 247.457031 L 230.148438 239.808594 C 229.324219 238.960938 228.699219 237.984375 228.269531 236.878906 C 227.839844 235.777344 227.640625 234.632812 227.667969 233.449219 C 227.683594 232.332031 227.917969 231.261719 228.367188 230.238281 C 228.820312 229.214844 229.449219 228.320312 230.261719 227.550781 C 230.679688 227.164062 231.132812 226.824219 231.621094 226.527344 C 232.105469 226.230469 232.617188 225.980469 233.148438 225.785156 C 233.683594 225.585938 234.234375 225.445312 234.796875 225.355469 C 235.359375 225.265625 235.921875 225.230469 236.492188 225.25 C 237.0625 225.273438 237.625 225.347656 238.179688 225.480469 C 238.730469 225.609375 239.269531 225.792969 239.785156 226.03125 C 240.304688 226.269531 240.796875 226.550781 241.257812 226.886719 C 241.71875 227.21875 242.144531 227.59375 242.535156 228.007812 L 249.875 235.675781 C 250.09375 234.453125 250.164062 233.21875 250.085938 231.976562 C 250.011719 230.734375 249.792969 229.519531 249.429688 228.332031 C 249.0625 227.140625 248.566406 226.011719 247.933594 224.941406 C 247.300781 223.871094 246.550781 222.886719 245.6875 221.992188 Z M 245.6875 221.992188 " fill-opacity="1" fill-rule="nonzero"/></g></g></g><g clip-path="url(#8336f4654a)"><g clip-path="url(#b0af2a37af)"><g clip-path="url(#a5056cab2a)"><path fill="#ffffff" d="M 125.800781 252.652344 L 125.375 270.992188 L 147.980469 271.519531 L 167.644531 252.75 L 147.648438 231.800781 Z M 125.800781 252.652344 " fill-opacity="1" fill-rule="nonzero"/></g></g></g><g clip-path="url(#71834a673e)"><g clip-path="url(#b0dbb3533c)"><g clip-path="url(#6ad676b711)"><path fill="#ffffff" d="M 207.351562 217.085938 C 206.796875 216.503906 206.371094 215.839844 206.066406 215.09375 C 205.761719 214.351562 205.605469 213.574219 205.59375 212.773438 C 203.996094 212.628906 202.644531 211.976562 201.539062 210.820312 L 199.453125 208.636719 C 198.066406 208.585938 196.742188 208.277344 195.476562 207.714844 C 194.210938 207.148438 193.097656 206.367188 192.136719 205.367188 L 192.011719 205.234375 C 192.097656 206.074219 192.128906 206.917969 192.101562 207.757812 C 192.074219 209.089844 191.917969 210.40625 191.628906 211.703125 C 191.339844 213.003906 190.925781 214.261719 190.386719 215.480469 C 189.851562 216.695312 189.199219 217.851562 188.429688 218.9375 C 187.664062 220.027344 186.800781 221.027344 185.835938 221.945312 L 182.851562 218.929688 C 183.230469 218.566406 183.589844 218.191406 183.933594 217.792969 C 184.277344 217.398438 184.597656 216.984375 184.902344 216.558594 C 185.203125 216.128906 185.484375 215.6875 185.742188 215.234375 C 186 214.777344 186.234375 214.308594 186.445312 213.832031 C 186.660156 213.351562 186.847656 212.863281 187.011719 212.367188 C 187.175781 211.871094 187.316406 211.367188 187.429688 210.855469 C 187.542969 210.34375 187.632812 209.828125 187.695312 209.308594 C 187.761719 208.789062 187.796875 208.269531 187.808594 207.746094 C 187.824219 207.222656 187.808594 206.699219 187.769531 206.175781 C 187.730469 205.652344 187.664062 205.132812 187.574219 204.617188 C 187.484375 204.101562 187.367188 203.59375 187.226562 203.089844 C 187.085938 202.585938 186.921875 202.089844 186.730469 201.601562 C 186.542969 201.113281 186.328125 200.632812 186.089844 200.167969 C 185.855469 199.699219 185.59375 199.246094 185.3125 198.804688 C 185.03125 198.363281 184.730469 197.9375 184.40625 197.523438 C 184.082031 197.113281 183.738281 196.71875 183.375 196.339844 C 183.179688 196.136719 183.03125 195.898438 182.929688 195.636719 C 182.824219 195.371094 182.777344 195.09375 182.785156 194.8125 C 182.792969 194.527344 182.851562 194.253906 182.96875 193.996094 C 183.082031 193.734375 183.242188 193.507812 183.449219 193.3125 C 183.652344 193.113281 183.890625 192.964844 184.152344 192.863281 C 184.417969 192.761719 184.695312 192.710938 184.976562 192.71875 C 185.261719 192.726562 185.535156 192.785156 185.792969 192.898438 C 186.054688 193.015625 186.28125 193.175781 186.480469 193.378906 L 195.195312 202.492188 C 195.484375 202.796875 195.804688 203.074219 196.148438 203.316406 C 196.496094 203.5625 196.859375 203.769531 197.246094 203.941406 C 197.632812 204.113281 198.03125 204.246094 198.445312 204.335938 C 198.859375 204.429688 199.277344 204.480469 199.699219 204.492188 C 200.121094 204.5 200.539062 204.46875 200.957031 204.394531 C 201.375 204.324219 201.777344 204.210938 202.171875 204.054688 C 202.566406 203.902344 202.941406 203.710938 203.296875 203.484375 C 203.65625 203.257812 203.984375 202.996094 204.289062 202.703125 L 205.292969 201.742188 L 188.089844 183.761719 C 187.832031 183.503906 187.550781 183.273438 187.246094 183.066406 C 186.941406 182.863281 186.621094 182.6875 186.285156 182.546875 C 185.949219 182.402344 185.601562 182.289062 185.242188 182.214844 C 184.886719 182.136719 184.523438 182.09375 184.15625 182.085938 C 183.789062 182.074219 183.425781 182.101562 183.066406 182.164062 C 182.703125 182.222656 182.351562 182.316406 182.007812 182.445312 C 181.667969 182.574219 181.339844 182.734375 181.023438 182.921875 C 180.710938 183.113281 180.421875 183.332031 180.148438 183.578125 L 169.902344 193.355469 L 169.476562 211.675781 C 169.460938 212.234375 169.257812 212.714844 168.867188 213.113281 L 162.628906 219.503906 L 181.0625 238.839844 L 186.6875 233.050781 C 187.117188 232.609375 187.644531 232.394531 188.261719 232.40625 L 199.171875 232.660156 L 211.492188 220.921875 C 210.871094 220.5625 210.332031 220.109375 209.878906 219.558594 Z M 207.351562 217.085938 " fill-opacity="1" fill-rule="nonzero"/></g></g></g><g clip-path="url(#3bd879d40d)"><g clip-path="url(#3eec03934d)"><g clip-path="url(#880eec4390)"><path fill="#ffffff" d="M 225.730469 206.578125 C 225.78125 205.957031 225.59375 205.417969 225.171875 204.960938 L 221.207031 200.9375 L 211.789062 209.90625 L 210.503906 211.027344 C 210.296875 211.222656 210.136719 211.453125 210.019531 211.710938 C 209.90625 211.972656 209.84375 212.246094 209.835938 212.53125 C 209.832031 212.8125 209.878906 213.089844 209.984375 213.355469 C 210.085938 213.621094 210.234375 213.855469 210.433594 214.058594 L 212.894531 216.617188 C 213.089844 216.824219 213.320312 216.984375 213.578125 217.101562 C 213.839844 217.214844 214.109375 217.277344 214.394531 217.285156 C 214.679688 217.289062 214.957031 217.242188 215.222656 217.136719 C 215.484375 217.035156 215.722656 216.882812 215.925781 216.6875 L 216.121094 216.5 L 225.097656 208.078125 C 225.515625 207.664062 225.726562 207.164062 225.730469 206.578125 Z M 225.730469 206.578125 " fill-opacity="1" fill-rule="nonzero"/></g></g></g><g clip-path="url(#91c32635bf)"><g clip-path="url(#863f481d1a)"><g clip-path="url(#82f80b185e)"><path fill="#ffffff" d="M 148.652344 226.695312 L 156.484375 219.21875 L 180.632812 244.523438 L 172.800781 251.996094 Z M 148.652344 226.695312 " fill-opacity="1" fill-rule="nonzero"/></g></g></g></svg>