<svg xmlns="http://www.w3.org/2000/svg" xmlns:xlink="http://www.w3.org/1999/xlink" width="500" zoomAndPan="magnify" viewBox="0 0 375 374.999991" height="500" preserveAspectRatio="xMidYMid meet" version="1.0"><defs><clipPath id="b5d9ebff1e"><path d="M 52.808594 215 L 197 215 L 197 260 L 52.808594 260 Z M 52.808594 215 " clip-rule="nonzero"/></clipPath></defs><g clip-path="url(#b5d9ebff1e)"><path fill="#ff3131" d="M 188.0625 215.414062 L 53.773438 215.414062 L 52.808594 225.121094 C 52.808594 225.566406 52.851562 226.011719 52.9375 226.449219 C 53.027344 226.890625 53.15625 227.316406 53.328125 227.730469 C 53.5 228.140625 53.707031 228.535156 53.957031 228.90625 C 54.207031 229.277344 54.488281 229.625 54.808594 229.9375 C 55.125 230.253906 55.46875 230.539062 55.839844 230.785156 C 56.214844 231.035156 56.605469 231.242188 57.019531 231.414062 C 57.433594 231.582031 57.859375 231.710938 58.300781 231.796875 C 58.738281 231.882812 59.183594 231.925781 59.628906 231.925781 L 81.46875 231.925781 C 82.203125 231.921875 82.921875 232.035156 83.625 232.257812 C 84.328125 232.484375 84.976562 232.808594 85.574219 233.238281 C 86.175781 233.664062 86.695312 234.175781 87.132812 234.765625 C 87.574219 235.355469 87.914062 236 88.148438 236.695312 C 88.710938 238.363281 89.398438 239.976562 90.214844 241.539062 C 91.027344 243.097656 91.957031 244.585938 93 246 C 94.046875 247.414062 95.195312 248.738281 96.445312 249.976562 C 97.699219 251.210938 99.039062 252.339844 100.46875 253.367188 C 101.894531 254.394531 103.394531 255.304688 104.964844 256.09375 C 106.535156 256.886719 108.15625 257.554688 109.832031 258.09375 C 111.503906 258.632812 113.210938 259.035156 114.949219 259.308594 C 116.6875 259.582031 118.433594 259.71875 120.191406 259.71875 C 121.953125 259.71875 123.699219 259.582031 125.4375 259.308594 C 127.175781 259.035156 128.878906 258.632812 130.554688 258.09375 C 132.226562 257.554688 133.851562 256.886719 135.421875 256.09375 C 136.988281 255.304688 138.488281 254.394531 139.917969 253.367188 C 141.347656 252.339844 142.6875 251.210938 143.9375 249.976562 C 145.191406 248.738281 146.339844 247.414062 147.382812 246 C 148.429688 244.585938 149.359375 243.097656 150.171875 241.539062 C 150.984375 239.976562 151.671875 238.363281 152.234375 236.695312 C 152.472656 236 152.808594 235.359375 153.246094 234.765625 C 153.683594 234.175781 154.199219 233.667969 154.796875 233.238281 C 155.394531 232.8125 156.042969 232.484375 156.746094 232.261719 C 157.445312 232.035156 158.164062 231.925781 158.898438 231.925781 L 196.917969 231.925781 C 193.300781 226.78125 190.347656 221.277344 188.0625 215.414062 Z M 188.0625 215.414062 " fill-opacity="1" fill-rule="nonzero"/></g><path fill="#ff3131" d="M 186.089844 209.65625 C 185.765625 208.609375 185.464844 207.644531 185.203125 206.515625 L 149.558594 186.582031 L 185.203125 166.667969 C 186.304688 162.464844 187.742188 158.378906 189.511719 154.414062 C 191.285156 150.445312 193.371094 146.648438 195.765625 143.023438 C 198.164062 139.398438 200.839844 135.996094 203.792969 132.808594 C 206.75 129.625 209.945312 126.703125 213.382812 124.042969 L 192.953125 124.042969 C 190.476562 124.046875 188.027344 124.300781 185.601562 124.808594 C 183.179688 125.3125 180.832031 126.058594 178.558594 127.046875 C 176.289062 128.03125 174.140625 129.242188 172.117188 130.667969 C 170.09375 132.09375 168.238281 133.714844 166.546875 135.519531 L 134.84375 163.488281 L 98.476562 163.488281 C 76.960938 163.488281 58.84375 174.742188 55.707031 196.003906 L 54.335938 209.65625 Z M 186.089844 209.65625 " fill-opacity="1" fill-rule="nonzero"/><path fill="#545454" d="M 234.636719 174.320312 L 247.738281 187.507812 L 263.519531 172.667969 L 250.054688 159.019531 C 250.398438 157.976562 250.667969 156.917969 250.867188 155.839844 C 251.066406 154.761719 251.191406 153.671875 251.242188 152.578125 C 251.292969 151.480469 251.269531 150.386719 251.171875 149.296875 C 251.070312 148.203125 250.898438 147.125 250.652344 146.054688 C 250.40625 144.984375 250.085938 143.941406 249.695312 142.914062 C 249.304688 141.890625 248.847656 140.894531 248.320312 139.933594 C 247.796875 138.972656 247.207031 138.050781 246.554688 137.167969 C 245.902344 136.285156 245.191406 135.453125 244.425781 134.667969 C 243.660156 133.882812 242.84375 133.15625 241.980469 132.484375 C 241.113281 131.808594 240.207031 131.199219 239.257812 130.652344 C 238.308594 130.101562 237.324219 129.621094 236.308594 129.207031 C 235.292969 128.792969 234.253906 128.449219 233.195312 128.179688 C 232.132812 127.90625 231.054688 127.707031 229.964844 127.582031 C 228.878906 127.460938 227.785156 127.410156 226.6875 127.433594 C 225.59375 127.460938 224.503906 127.558594 223.421875 127.734375 C 222.339844 127.90625 221.273438 128.152344 220.222656 128.472656 L 231.554688 139.808594 L 228.15625 152.515625 L 215.453125 155.917969 L 204.121094 144.582031 C 203.808594 145.628906 203.566406 146.691406 203.394531 147.773438 C 203.226562 148.851562 203.128906 149.941406 203.105469 151.035156 C 203.085938 152.125 203.136719 153.214844 203.265625 154.304688 C 203.394531 155.390625 203.59375 156.460938 203.867188 157.519531 C 204.140625 158.578125 204.484375 159.613281 204.898438 160.625 C 205.316406 161.636719 205.796875 162.617188 206.34375 163.5625 C 206.894531 164.507812 207.503906 165.414062 208.175781 166.273438 C 208.847656 167.136719 209.574219 167.949219 210.359375 168.714844 C 211.140625 169.476562 211.972656 170.183594 212.851562 170.832031 C 213.730469 171.480469 214.652344 172.070312 215.609375 172.59375 C 216.570312 173.117188 217.5625 173.574219 218.582031 173.960938 C 219.605469 174.351562 220.648438 174.667969 221.714844 174.914062 C 222.777344 175.160156 223.855469 175.332031 224.945312 175.429688 C 226.03125 175.53125 227.121094 175.554688 228.214844 175.503906 C 229.308594 175.453125 230.390625 175.328125 231.464844 175.132812 C 232.539062 174.933594 233.597656 174.664062 234.636719 174.320312 Z M 234.636719 174.320312 " fill-opacity="1" fill-rule="nonzero"/><path fill="#545454" d="M 264.140625 203.835938 L 286.523438 226.328125 C 289.636719 224.40625 292.484375 222.15625 295.078125 219.574219 C 297.667969 216.996094 299.929688 214.152344 301.859375 211.046875 L 278.714844 187.910156 Z M 264.140625 203.835938 " fill-opacity="1" fill-rule="nonzero"/><path fill="#ff3131" d="M 247.898438 130.730469 C 252.308594 129.652344 256.78125 129.09375 261.324219 129.0625 C 265.863281 129.027344 270.34375 129.515625 274.769531 130.527344 L 285.417969 119.875 C 285.636719 119.65625 285.898438 119.453125 286.140625 119.253906 C 283.886719 118.441406 281.601562 117.746094 279.277344 117.164062 C 276.957031 116.582031 274.609375 116.117188 272.242188 115.769531 C 269.871094 115.421875 267.492188 115.195312 265.101562 115.085938 C 262.707031 114.976562 260.316406 114.984375 257.925781 115.117188 C 255.535156 115.246094 253.15625 115.496094 250.792969 115.863281 C 248.425781 116.230469 246.085938 116.71875 243.769531 117.320312 C 241.449219 117.921875 239.167969 118.640625 236.921875 119.46875 C 234.679688 120.300781 232.480469 121.242188 230.328125 122.292969 C 233.652344 122.652344 236.824219 123.554688 239.835938 125.003906 C 242.851562 126.453125 245.539062 128.359375 247.898438 130.730469 Z M 247.898438 130.730469 " fill-opacity="1" fill-rule="nonzero"/><path fill="#ff3131" d="M 330.5625 166.628906 L 318.746094 178.449219 C 318.898438 179.5 319.019531 180.554688 319.113281 181.613281 C 319.207031 182.667969 319.269531 183.730469 319.304688 184.792969 C 319.339844 185.851562 319.34375 186.914062 319.320312 187.976562 C 319.292969 189.039062 319.242188 190.097656 319.15625 191.15625 C 319.074219 192.214844 318.960938 193.269531 318.820312 194.324219 C 318.679688 195.375 318.507812 196.425781 318.308594 197.46875 C 318.109375 198.511719 317.882812 199.546875 317.625 200.578125 C 317.367188 201.609375 317.082031 202.632812 316.769531 203.644531 C 316.457031 204.660156 316.113281 205.664062 315.746094 206.660156 C 315.375 207.65625 314.980469 208.640625 314.554688 209.617188 C 314.132812 210.589844 313.683594 211.550781 313.207031 212.5 C 312.730469 213.449219 312.226562 214.382812 311.699219 215.304688 C 311.167969 216.226562 310.617188 217.132812 310.039062 218.023438 C 309.457031 218.914062 308.855469 219.789062 308.230469 220.644531 C 307.601562 221.5 306.953125 222.339844 306.277344 223.160156 C 305.605469 223.984375 304.910156 224.785156 304.191406 225.566406 C 303.472656 226.351562 302.734375 227.113281 301.976562 227.855469 C 301.214844 228.59375 300.4375 229.316406 299.636719 230.015625 C 298.835938 230.710938 298.019531 231.386719 297.179688 232.042969 C 296.34375 232.695312 295.488281 233.324219 294.617188 233.929688 C 293.746094 234.535156 292.855469 235.117188 291.953125 235.675781 C 291.050781 236.230469 290.128906 236.761719 289.195312 237.269531 C 288.261719 237.773438 287.316406 238.253906 286.355469 238.707031 C 285.394531 239.160156 284.425781 239.585938 283.441406 239.984375 C 282.457031 240.386719 281.464844 240.757812 280.457031 241.101562 C 279.453125 241.445312 278.441406 241.761719 277.417969 242.050781 C 276.398438 242.339844 275.367188 242.601562 274.332031 242.832031 C 273.296875 243.0625 272.253906 243.265625 271.207031 243.441406 C 270.160156 243.613281 269.109375 243.757812 268.054688 243.875 C 267 243.988281 265.941406 244.074219 264.878906 244.132812 C 263.820312 244.191406 262.757812 244.21875 261.699219 244.214844 C 260.636719 244.214844 259.574219 244.183594 258.515625 244.121094 C 257.457031 244.0625 256.398438 243.972656 255.34375 243.851562 C 254.289062 243.734375 253.238281 243.585938 252.191406 243.410156 C 251.144531 243.230469 250.101562 243.027344 249.066406 242.789062 C 248.03125 242.554688 247.003906 242.292969 245.984375 242 C 244.960938 241.710938 243.949219 241.390625 242.945312 241.042969 C 241.945312 240.695312 240.949219 240.320312 239.96875 239.914062 C 238.984375 239.511719 238.015625 239.082031 237.058594 238.625 C 236.097656 238.171875 235.152344 237.6875 234.222656 237.179688 C 233.289062 236.671875 232.371094 236.136719 231.46875 235.574219 C 230.566406 235.015625 229.679688 234.433594 228.8125 233.824219 C 227.941406 233.214844 227.089844 232.582031 226.253906 231.925781 C 225.417969 231.269531 224.601562 230.59375 223.804688 229.890625 C 223.007812 229.191406 222.230469 228.46875 221.472656 227.722656 C 220.714844 226.980469 219.980469 226.214844 219.261719 225.429688 C 218.546875 224.644531 217.855469 223.839844 217.183594 223.019531 C 216.515625 222.195312 215.867188 221.351562 215.242188 220.492188 C 214.617188 219.636719 214.019531 218.757812 213.441406 217.867188 C 212.867188 216.972656 212.316406 216.066406 211.789062 215.144531 C 211.265625 214.222656 210.765625 213.285156 210.292969 212.335938 C 209.816406 211.382812 209.371094 210.421875 208.949219 209.445312 C 208.53125 208.46875 208.136719 207.484375 207.769531 206.488281 C 207.40625 205.488281 207.066406 204.484375 206.757812 203.46875 C 206.449219 202.453125 206.164062 201.429688 205.910156 200.398438 C 205.660156 199.367188 205.433594 198.328125 205.238281 197.285156 C 205.042969 196.242188 204.875 195.191406 204.734375 194.140625 C 204.597656 193.085938 204.488281 192.03125 204.410156 190.972656 C 204.328125 189.914062 204.28125 188.851562 204.257812 187.789062 C 204.238281 186.726562 204.246094 185.667969 204.285156 184.605469 C 204.320312 183.542969 204.386719 182.484375 204.484375 181.425781 C 204.582031 180.367188 204.707031 179.316406 204.859375 178.265625 C 205.015625 177.214844 205.199219 176.167969 205.410156 175.125 C 205.625 174.085938 205.867188 173.050781 206.136719 172.023438 C 203.789062 169.625 201.910156 166.90625 200.5 163.863281 C 199.085938 160.820312 198.222656 157.628906 197.902344 154.285156 C 194.894531 160.238281 192.753906 166.484375 191.484375 173.03125 L 167.128906 186.644531 L 191.484375 200.273438 C 191.714844 201.457031 191.976562 202.632812 192.265625 203.800781 C 192.558594 204.972656 192.878906 206.132812 193.226562 207.285156 C 193.578125 208.441406 193.957031 209.582031 194.363281 210.71875 C 194.769531 211.851562 195.207031 212.976562 195.667969 214.085938 C 196.132812 215.199219 196.625 216.300781 197.144531 217.386719 C 197.664062 218.472656 198.210938 219.546875 198.785156 220.605469 C 199.355469 221.667969 199.957031 222.710938 200.582031 223.742188 C 201.210938 224.769531 201.859375 225.785156 202.539062 226.78125 C 203.214844 227.777344 203.917969 228.753906 204.644531 229.71875 C 205.371094 230.679688 206.121094 231.621094 206.894531 232.542969 C 207.671875 233.464844 208.46875 234.371094 209.289062 235.253906 C 210.105469 236.136719 210.949219 236.996094 211.8125 237.839844 C 212.675781 238.679688 213.558594 239.496094 214.464844 240.292969 C 215.367188 241.089844 216.292969 241.863281 217.234375 242.609375 C 218.179688 243.359375 219.140625 244.085938 220.121094 244.785156 C 221.101562 245.488281 222.097656 246.160156 223.113281 246.8125 C 224.128906 247.460938 225.15625 248.085938 226.203125 248.683594 C 227.25 249.285156 228.308594 249.855469 229.382812 250.398438 C 230.457031 250.945312 231.546875 251.460938 232.644531 251.953125 C 233.746094 252.441406 234.859375 252.902344 235.984375 253.335938 C 237.105469 253.773438 238.242188 254.175781 239.386719 254.554688 C 240.53125 254.929688 241.683594 255.277344 242.84375 255.59375 C 244.007812 255.914062 245.175781 256.203125 246.351562 256.460938 C 247.527344 256.722656 248.710938 256.949219 249.898438 257.148438 C 251.085938 257.351562 252.28125 257.519531 253.476562 257.660156 C 254.671875 257.796875 255.871094 257.90625 257.074219 257.984375 C 258.277344 258.066406 259.480469 258.113281 260.683594 258.132812 C 261.890625 258.148438 263.09375 258.136719 264.296875 258.09375 C 265.5 258.050781 266.703125 257.980469 267.902344 257.875 C 269.101562 257.773438 270.300781 257.636719 271.492188 257.472656 C 272.6875 257.3125 273.875 257.117188 275.058594 256.894531 C 276.242188 256.667969 277.421875 256.414062 278.589844 256.132812 C 279.761719 255.847656 280.925781 255.535156 282.082031 255.195312 C 283.234375 254.851562 284.382812 254.480469 285.519531 254.082031 C 286.65625 253.683594 287.78125 253.253906 288.894531 252.796875 C 290.011719 252.339844 291.113281 251.855469 292.203125 251.34375 C 293.292969 250.832031 294.371094 250.292969 295.433594 249.726562 C 296.496094 249.160156 297.542969 248.566406 298.578125 247.945312 C 299.613281 247.324219 300.628906 246.679688 301.628906 246.011719 C 302.628906 245.339844 303.613281 244.644531 304.578125 243.921875 C 305.542969 243.203125 306.492188 242.457031 307.417969 241.6875 C 308.347656 240.921875 309.253906 240.128906 310.144531 239.316406 C 311.03125 238.5 311.898438 237.664062 312.746094 236.808594 C 313.589844 235.949219 314.414062 235.070312 315.214844 234.171875 C 316.015625 233.269531 316.796875 232.351562 317.550781 231.414062 C 318.304688 230.472656 319.039062 229.515625 319.746094 228.539062 C 320.453125 227.566406 321.132812 226.570312 321.789062 225.5625 C 322.445312 224.550781 323.078125 223.523438 323.683594 222.484375 C 324.289062 221.441406 324.867188 220.382812 325.417969 219.3125 C 325.96875 218.242188 326.496094 217.15625 326.992188 216.058594 C 327.488281 214.960938 327.957031 213.851562 328.398438 212.730469 C 328.839844 211.609375 329.253906 210.476562 329.636719 209.335938 C 330.019531 208.191406 330.375 207.042969 330.703125 205.882812 C 331.027344 204.722656 331.324219 203.554688 331.589844 202.378906 C 331.859375 201.203125 332.09375 200.023438 332.300781 198.835938 C 332.507812 197.648438 332.6875 196.457031 332.835938 195.261719 C 332.980469 194.0625 333.097656 192.863281 333.183594 191.664062 C 333.273438 190.460938 333.328125 189.257812 333.355469 188.050781 C 333.378906 186.847656 333.375 185.644531 333.34375 184.4375 C 333.308594 183.234375 333.242188 182.03125 333.148438 180.828125 C 333.050781 179.628906 332.925781 178.429688 332.769531 177.234375 C 332.613281 176.039062 332.429688 174.851562 332.210938 173.664062 C 331.996094 172.476562 331.75 171.300781 331.476562 170.125 C 331.199219 168.953125 330.894531 167.785156 330.5625 166.628906 Z M 330.5625 166.628906 " fill-opacity="1" fill-rule="nonzero"/><path fill="#545454" d="M 283.605469 133.609375 C 283.3125 133.355469 282.988281 133.167969 282.625 133.039062 C 282.261719 132.910156 281.890625 132.855469 281.507812 132.867188 C 281.121094 132.882812 280.753906 132.964844 280.402344 133.117188 C 280.050781 133.273438 279.738281 133.484375 279.464844 133.757812 C 279.195312 134.027344 278.980469 134.339844 278.828125 134.691406 C 278.675781 135.046875 278.589844 135.414062 278.578125 135.796875 C 278.5625 136.183594 278.621094 136.554688 278.75 136.917969 C 278.875 137.28125 279.066406 137.605469 279.316406 137.898438 L 313.371094 171.984375 C 313.660156 172.269531 313.988281 172.492188 314.359375 172.644531 C 314.734375 172.800781 315.121094 172.878906 315.527344 172.878906 C 315.929688 172.878906 316.320312 172.800781 316.691406 172.644531 C 317.066406 172.492188 317.394531 172.269531 317.679688 171.984375 C 317.964844 171.699219 318.1875 171.371094 318.339844 170.996094 C 318.496094 170.625 318.570312 170.234375 318.570312 169.832031 C 318.570312 169.425781 318.496094 169.039062 318.339844 168.664062 C 318.1875 168.292969 317.964844 167.960938 317.679688 167.675781 Z M 283.605469 133.609375 " fill-opacity="1" fill-rule="nonzero"/><path fill="#545454" d="M 327.582031 158.332031 L 292.945312 123.703125 C 292.695312 123.457031 292.410156 123.265625 292.089844 123.132812 C 291.765625 123 291.429688 122.933594 291.082031 122.933594 C 290.734375 122.933594 290.398438 123 290.074219 123.132812 C 289.753906 123.265625 289.46875 123.457031 289.21875 123.703125 L 284.027344 128.898438 L 322.371094 167.375 L 327.582031 162.160156 C 327.84375 161.910156 328.046875 161.621094 328.191406 161.289062 C 328.332031 160.957031 328.402344 160.609375 328.402344 160.246094 C 328.402344 159.886719 328.332031 159.539062 328.191406 159.207031 C 328.046875 158.875 327.84375 158.582031 327.582031 158.332031 Z M 327.582031 158.332031 " fill-opacity="1" fill-rule="nonzero"/><path fill="#545454" d="M 259.171875 153.785156 C 258.925781 154.027344 258.734375 154.3125 258.601562 154.632812 C 258.46875 154.953125 258.402344 155.289062 258.402344 155.636719 C 258.402344 155.984375 258.46875 156.316406 258.601562 156.636719 C 258.734375 156.960938 258.925781 157.242188 259.171875 157.488281 L 265.953125 164.273438 C 268.042969 163.875 270.132812 163.851562 272.230469 164.195312 C 274.328125 164.542969 276.300781 165.238281 278.148438 166.285156 L 241.378906 200.757812 C 239.753906 200.433594 238.128906 200.445312 236.507812 200.792969 C 234.890625 201.144531 233.40625 201.804688 232.058594 202.769531 L 235.84375 206.535156 C 236.484375 206.191406 237.164062 205.957031 237.878906 205.832031 C 238.59375 205.707031 239.3125 205.695312 240.03125 205.800781 C 240.753906 205.90625 241.4375 206.121094 242.085938 206.449219 C 242.738281 206.773438 243.320312 207.191406 243.835938 207.707031 C 244.351562 208.21875 244.773438 208.800781 245.101562 209.449219 C 245.429688 210.097656 245.648438 210.78125 245.757812 211.503906 C 245.867188 212.222656 245.859375 212.941406 245.738281 213.65625 C 245.613281 214.375 245.382812 215.054688 245.042969 215.695312 L 248.824219 219.480469 C 249.785156 218.132812 250.441406 216.648438 250.789062 215.027344 C 251.140625 213.410156 251.15625 211.785156 250.835938 210.160156 L 285.054688 173.070312 C 286.105469 174.921875 286.804688 176.894531 287.148438 178.992188 C 287.496094 181.089844 287.46875 183.183594 287.066406 185.273438 L 293.847656 192.058594 C 294.097656 192.304688 294.382812 192.496094 294.703125 192.628906 C 295.027344 192.761719 295.363281 192.828125 295.710938 192.828125 C 296.058594 192.828125 296.394531 192.761719 296.71875 192.628906 C 297.042969 192.496094 297.324219 192.304688 297.574219 192.058594 L 313.253906 176.375 L 274.847656 138.078125 Z M 283.625 160.972656 C 283.84375 160.75 284.082031 160.554688 284.339844 160.382812 C 284.597656 160.210938 284.871094 160.0625 285.160156 159.945312 C 285.445312 159.824219 285.742188 159.734375 286.046875 159.671875 C 286.351562 159.613281 286.660156 159.582031 286.96875 159.582031 C 287.28125 159.582031 287.589844 159.613281 287.894531 159.671875 C 288.199219 159.734375 288.492188 159.824219 288.78125 159.941406 C 289.066406 160.058594 289.339844 160.207031 289.597656 160.378906 C 289.855469 160.550781 290.097656 160.746094 290.316406 160.964844 C 290.535156 161.1875 290.730469 161.425781 290.90625 161.683594 C 291.078125 161.941406 291.222656 162.214844 291.34375 162.503906 C 291.460938 162.789062 291.550781 163.085938 291.613281 163.390625 C 291.671875 163.695312 291.703125 164.003906 291.703125 164.3125 C 291.703125 164.625 291.671875 164.933594 291.613281 165.238281 C 291.550781 165.542969 291.460938 165.839844 291.34375 166.125 C 291.222656 166.414062 291.078125 166.683594 290.90625 166.945312 C 290.730469 167.203125 290.535156 167.441406 290.316406 167.660156 C 290.097656 167.878906 289.855469 168.078125 289.597656 168.25 C 289.339844 168.421875 289.066406 168.566406 288.78125 168.6875 C 288.492188 168.804688 288.199219 168.894531 287.894531 168.953125 C 287.589844 169.015625 287.28125 169.046875 286.96875 169.046875 C 286.660156 169.046875 286.351562 169.015625 286.046875 168.953125 C 285.742188 168.894531 285.445312 168.804688 285.160156 168.683594 C 284.871094 168.5625 284.597656 168.417969 284.339844 168.246094 C 284.082031 168.074219 283.84375 167.875 283.625 167.65625 C 283.40625 167.4375 283.210938 167.199219 283.039062 166.9375 C 282.867188 166.679688 282.71875 166.410156 282.601562 166.121094 C 282.484375 165.835938 282.394531 165.539062 282.332031 165.234375 C 282.273438 164.929688 282.242188 164.625 282.242188 164.3125 C 282.242188 164.003906 282.273438 163.695312 282.332031 163.390625 C 282.394531 163.085938 282.484375 162.792969 282.601562 162.503906 C 282.71875 162.21875 282.867188 161.945312 283.039062 161.6875 C 283.210938 161.429688 283.40625 161.191406 283.625 160.972656 Z M 283.625 160.972656 " fill-opacity="1" fill-rule="nonzero"/><path fill="#545454" d="M 234.253906 217.386719 C 233.734375 216.871094 233.308594 216.28125 232.980469 215.625 C 232.652344 214.972656 232.4375 214.28125 232.335938 213.554688 C 232.230469 212.828125 232.246094 212.101562 232.378906 211.382812 C 232.507812 210.660156 232.753906 209.976562 233.105469 209.335938 L 229.320312 205.628906 C 228.953125 206.207031 228.636719 206.808594 228.371094 207.4375 C 228.105469 208.070312 227.890625 208.71875 227.738281 209.382812 C 227.582031 210.050781 227.480469 210.722656 227.441406 211.40625 C 227.398438 212.089844 227.414062 212.769531 227.488281 213.453125 C 227.5625 214.132812 227.695312 214.800781 227.882812 215.457031 C 228.070312 216.117188 228.3125 216.753906 228.609375 217.371094 C 228.902344 217.988281 229.25 218.574219 229.644531 219.132812 C 230.039062 219.691406 230.480469 220.210938 230.964844 220.695312 C 231.449219 221.175781 231.96875 221.617188 232.527344 222.011719 C 233.089844 222.40625 233.675781 222.75 234.292969 223.042969 C 234.910156 223.339844 235.546875 223.578125 236.207031 223.765625 C 236.863281 223.953125 237.53125 224.082031 238.214844 224.152344 C 238.894531 224.226562 239.574219 224.242188 240.257812 224.199219 C 240.9375 224.15625 241.613281 224.054688 242.277344 223.894531 C 242.945312 223.738281 243.589844 223.527344 244.222656 223.257812 C 244.851562 222.988281 245.453125 222.671875 246.027344 222.300781 L 242.242188 218.535156 C 241.601562 218.878906 240.925781 219.113281 240.210938 219.238281 C 239.496094 219.363281 238.777344 219.375 238.058594 219.269531 C 237.34375 219.167969 236.65625 218.957031 236.007812 218.632812 C 235.355469 218.3125 234.769531 217.898438 234.253906 217.386719 Z M 234.253906 217.386719 " fill-opacity="1" fill-rule="nonzero"/></svg>