<svg xmlns="http://www.w3.org/2000/svg" xmlns:xlink="http://www.w3.org/1999/xlink" width="500" zoomAndPan="magnify" viewBox="0 0 375 374.999991" height="500" preserveAspectRatio="xMidYMid meet" version="1.0"><defs><clipPath id="1d1539a1e2"><path d="M 112 286 L 146 286 L 146 310.90625 L 112 310.90625 Z M 112 286 " clip-rule="nonzero"/></clipPath><clipPath id="5204a5f855"><path d="M 56.285156 81 L 105 81 L 105 282 L 56.285156 282 Z M 56.285156 81 " clip-rule="nonzero"/></clipPath></defs><g clip-path="url(#1d1539a1e2)"><path fill="#df5745" d="M 140.621094 310.699219 C 142.597656 310.699219 144.492188 309.566406 145.398438 307.652344 C 146.632812 305.015625 145.480469 301.886719 142.84375 300.652344 C 135.164062 297.046875 127.773438 292.683594 120.894531 287.660156 C 118.527344 285.929688 115.253906 286.445312 113.523438 288.792969 C 111.816406 291.140625 112.328125 294.433594 114.675781 296.164062 C 122.089844 301.578125 130.078125 306.3125 138.398438 310.207031 C 139.117188 310.535156 139.859375 310.699219 140.621094 310.699219 " fill-opacity="1" fill-rule="nonzero"/></g><g clip-path="url(#5204a5f855)"><path fill="#df5745" d="M 66.824219 181.207031 C 66.824219 147.027344 79.859375 114.617188 103.515625 89.96875 C 105.535156 87.867188 105.453125 84.535156 103.351562 82.515625 C 101.253906 80.496094 97.917969 80.558594 95.898438 82.679688 C 70.347656 109.304688 56.285156 144.289062 56.285156 181.207031 C 56.285156 218.125 70.347656 253.109375 95.898438 279.730469 C 96.949219 280.824219 98.328125 281.359375 99.707031 281.359375 C 101.027344 281.359375 102.34375 280.863281 103.351562 279.894531 C 105.453125 277.878906 105.535156 274.542969 103.515625 272.441406 C 79.859375 247.796875 66.824219 215.386719 66.824219 181.207031 " fill-opacity="1" fill-rule="nonzero"/></g><path fill="#df5745" d="M 250.429688 264.328125 L 253.351562 272.195312 C 252.261719 272.855469 251.148438 273.492188 250.035156 274.109375 L 244.621094 267.605469 C 240.648438 262.828125 234.304688 261.097656 228.457031 263.238281 C 222.609375 265.359375 218.84375 270.753906 218.863281 276.992188 L 218.90625 285.433594 C 217.648438 285.683594 216.390625 285.910156 215.136719 286.09375 L 212.316406 278.207031 C 210.214844 272.339844 204.839844 268.550781 198.601562 268.550781 C 192.363281 268.550781 186.988281 272.339844 184.890625 278.207031 L 182.070312 286.09375 C 180.8125 285.910156 179.535156 285.683594 178.28125 285.433594 L 178.320312 276.972656 C 178.363281 270.753906 174.59375 265.359375 168.746094 263.238281 C 162.898438 261.097656 156.535156 262.804688 152.5625 267.605469 L 147.167969 274.109375 C 146.054688 273.492188 144.945312 272.855469 143.851562 272.195312 L 146.757812 264.328125 C 148.9375 258.480469 147.25 252.121094 142.472656 248.125 C 137.695312 244.109375 131.148438 243.554688 125.773438 246.683594 L 118.527344 250.925781 C 117.664062 249.9375 116.820312 248.96875 116.015625 247.980469 L 121.472656 241.535156 C 125.507812 236.78125 126.085938 230.230469 122.976562 224.835938 C 119.867188 219.441406 113.894531 216.683594 107.757812 217.796875 L 99.460938 219.320312 C 99.007812 218.144531 98.574219 216.949219 98.164062 215.757812 L 105.492188 211.578125 C 110.886719 208.488281 113.6875 202.539062 112.617188 196.402344 C 111.546875 190.265625 106.875 185.632812 100.738281 184.582031 L 92.417969 183.140625 C 92.398438 182.503906 92.398438 181.84375 92.398438 181.207031 C 92.398438 180.566406 92.398438 179.910156 92.417969 179.269531 L 100.738281 177.828125 C 106.875 176.777344 111.546875 172.144531 112.617188 166.011719 C 113.710938 159.875 110.910156 153.921875 105.492188 150.835938 L 98.164062 146.65625 C 98.574219 145.460938 99.007812 144.265625 99.460938 143.09375 L 107.757812 144.597656 C 113.894531 145.726562 119.867188 142.949219 122.976562 137.574219 C 126.085938 132.179688 125.507812 125.632812 121.492188 120.875 L 116.035156 114.429688 C 116.839844 113.441406 117.664062 112.453125 118.527344 111.488281 L 125.773438 115.707031 C 131.148438 118.859375 137.71875 118.300781 142.472656 114.285156 C 147.25 110.292969 148.9375 103.929688 146.777344 98.082031 L 143.851562 90.214844 C 144.945312 89.558594 146.054688 88.917969 147.167969 88.300781 L 152.582031 94.808594 C 156.558594 99.585938 162.898438 101.292969 168.746094 99.171875 C 174.59375 97.050781 178.363281 91.65625 178.34375 85.417969 L 178.300781 76.976562 C 179.558594 76.730469 180.8125 76.503906 182.070312 76.316406 L 184.890625 84.203125 C 186.988281 90.074219 192.363281 93.859375 198.601562 93.859375 C 204.839844 93.859375 210.214844 90.074219 212.316406 84.203125 L 215.136719 76.316406 C 216.390625 76.503906 217.667969 76.730469 218.925781 76.976562 L 218.882812 85.4375 C 218.84375 91.65625 222.609375 97.050781 228.457031 99.171875 C 234.304688 101.292969 240.648438 99.585938 244.640625 94.808594 L 250.035156 88.300781 C 251.148438 88.917969 252.261719 89.558594 253.351562 90.214844 L 250.449219 98.082031 C 248.265625 103.929688 249.953125 110.292969 254.730469 114.285156 C 259.507812 118.300781 266.054688 118.859375 271.429688 115.726562 L 278.679688 111.488281 C 279.542969 112.476562 280.386719 113.441406 281.191406 114.429688 L 275.734375 120.875 C 271.699219 125.632812 271.121094 132.179688 274.230469 137.574219 C 277.339844 142.96875 283.3125 145.726562 289.445312 144.617188 L 297.746094 143.09375 C 298.199219 144.265625 298.628906 145.460938 299.042969 146.65625 L 291.710938 150.835938 C 286.316406 153.921875 283.515625 159.875 284.585938 166.011719 C 285.65625 172.144531 290.332031 176.777344 296.46875 177.828125 L 304.785156 179.269531 C 304.808594 179.910156 304.808594 180.566406 304.808594 181.207031 C 304.808594 181.84375 304.808594 182.503906 304.785156 183.140625 L 296.46875 184.582031 C 290.332031 185.632812 285.65625 190.265625 284.585938 196.402344 C 283.496094 202.539062 286.296875 208.488281 291.710938 211.578125 L 299.042969 215.757812 C 298.628906 216.949219 298.199219 218.144531 297.746094 219.320312 L 289.445312 217.796875 C 284.8125 216.972656 280.261719 218.308594 276.886719 221.460938 C 275.425781 222.859375 274.355469 224.527344 273.550781 226.339844 L 267.519531 219.339844 C 267.621094 218.929688 267.765625 218.515625 267.765625 218.105469 C 267.765625 216.722656 267.230469 215.367188 266.222656 214.355469 C 265.128906 213.265625 263.566406 212.855469 262.039062 212.976562 L 256.503906 206.554688 C 260.023438 198.542969 261.855469 190.039062 261.855469 181.207031 C 261.855469 146.324219 233.480469 117.953125 198.601562 117.953125 C 163.722656 117.953125 135.347656 146.324219 135.347656 181.207031 C 135.347656 216.085938 163.722656 244.460938 198.601562 244.460938 C 207.4375 244.460938 215.941406 242.628906 223.949219 239.105469 L 250.222656 261.757812 C 250.121094 262.601562 250.121094 263.464844 250.429688 264.328125 Z M 297.683594 287.761719 C 295.644531 285.703125 295.644531 282.347656 297.683594 280.308594 C 299.742188 278.25 303.097656 278.25 305.15625 280.289062 C 307.195312 282.347656 307.195312 285.703125 305.15625 287.761719 C 303.097656 289.800781 299.742188 289.800781 297.683594 287.761719 Z M 214.414062 230.890625 L 214.929688 231.324219 C 214.765625 231.386719 214.582031 231.40625 214.414062 231.46875 Z M 193.332031 212.710938 L 203.875 221.808594 L 203.875 233.648438 C 202.125 233.816406 200.375 233.917969 198.601562 233.917969 C 196.832031 233.917969 195.0625 233.816406 193.332031 233.648438 Z M 171.257812 197.019531 C 174.039062 201.796875 178.011719 205.769531 182.789062 208.550781 L 182.789062 231.488281 C 166.421875 226.320312 153.488281 213.390625 148.320312 197.019531 Z M 182.789062 153.863281 C 178.011719 156.640625 174.039062 160.617188 171.257812 165.390625 L 148.320312 165.390625 C 153.488281 149.023438 166.421875 136.09375 182.789062 130.925781 Z M 203.875 150.050781 C 202.144531 149.765625 200.394531 149.578125 198.601562 149.578125 C 196.8125 149.578125 195.0625 149.765625 193.332031 150.050781 L 193.332031 128.761719 C 195.0625 128.597656 196.832031 128.496094 198.601562 128.496094 C 200.375 128.496094 202.144531 128.597656 203.875 128.761719 Z M 225.945312 165.390625 C 223.167969 160.617188 219.191406 156.640625 214.414062 153.863281 L 214.414062 130.925781 C 230.785156 136.09375 243.714844 149.023438 248.882812 165.390625 Z M 248.285156 197.019531 L 248.84375 197.019531 C 248.800781 197.183594 248.761719 197.347656 248.71875 197.511719 Z M 230.105469 175.933594 L 251.046875 175.933594 C 251.210938 177.664062 251.3125 179.433594 251.3125 181.207031 C 251.3125 182.976562 251.210938 184.726562 251.023438 186.476562 L 239.1875 186.476562 Z M 145.890625 181.207031 C 145.890625 179.394531 145.996094 177.601562 146.160156 175.832031 C 146.324219 175.851562 146.449219 175.933594 146.613281 175.933594 L 167.449219 175.933594 C 167.160156 177.664062 166.976562 179.414062 166.976562 181.207031 C 166.976562 182.996094 167.160156 184.746094 167.449219 186.476562 L 146.160156 186.476562 C 145.996094 184.746094 145.890625 182.976562 145.890625 181.207031 Z M 198.601562 202.289062 C 186.96875 202.289062 177.519531 192.839844 177.519531 181.207031 C 177.519531 169.574219 186.96875 160.121094 198.601562 160.121094 C 210.234375 160.121094 219.6875 169.574219 219.6875 181.207031 C 219.6875 192.839844 210.234375 202.289062 198.601562 202.289062 Z M 207.972656 211.414062 C 217.894531 208.34375 225.71875 200.5 228.808594 190.574219 L 296.488281 269.066406 C 294.203125 269.828125 292.039062 271.042969 290.230469 272.855469 C 288.4375 274.644531 287.222656 276.808594 286.460938 279.09375 Z M 300.832031 300.054688 C 304.085938 300.054688 307.339844 299.105469 310.117188 297.234375 C 311.003906 296.65625 311.828125 295.976562 312.609375 295.214844 C 312.714844 295.113281 312.773438 294.988281 312.878906 294.886719 C 318.707031 288.75 318.992188 279.050781 313.433594 272.605469 L 281.953125 236.078125 C 282.589844 235.070312 282.960938 233.898438 282.816406 232.640625 C 282.652344 231.386719 283.167969 230.046875 284.132812 229.140625 C 284.773438 228.523438 285.882812 227.863281 287.550781 228.171875 L 300.070312 230.457031 C 302.480469 230.890625 304.867188 229.613281 305.855469 227.347656 C 307.605469 223.292969 309.128906 219.070312 310.40625 214.808594 C 311.128906 212.460938 310.117188 209.929688 307.976562 208.714844 L 296.941406 202.414062 C 294.65625 201.117188 294.863281 198.894531 294.964844 198.234375 C 295.089844 197.574219 295.664062 195.414062 298.238281 194.960938 L 310.777344 192.820312 C 313.1875 192.40625 315 190.367188 315.144531 187.917969 C 315.265625 185.695312 315.347656 183.449219 315.347656 181.207031 C 315.347656 178.960938 315.265625 176.71875 315.144531 174.492188 C 315 172.042969 313.1875 170.003906 310.777344 169.59375 L 298.238281 167.453125 C 295.664062 167 295.089844 164.835938 294.964844 164.175781 C 294.863281 163.519531 294.65625 161.292969 296.941406 159.996094 L 307.976562 153.695312 C 310.117188 152.480469 311.128906 149.96875 310.40625 147.601562 C 309.128906 143.320312 307.585938 139.097656 305.855469 135.0625 C 304.890625 132.796875 302.480469 131.519531 300.070312 131.953125 L 287.550781 134.238281 C 285 134.734375 283.703125 132.878906 283.351562 132.304688 C 283.023438 131.726562 282.074219 129.6875 283.761719 127.691406 L 292 117.972656 C 293.585938 116.097656 293.667969 113.378906 292.207031 111.425781 C 289.632812 107.984375 286.730469 104.527344 283.558594 101.171875 C 281.871094 99.378906 279.171875 98.988281 277.050781 100.222656 L 266.117188 106.605469 C 263.851562 107.945312 262.019531 106.648438 261.503906 106.214844 C 261.011719 105.804688 259.40625 104.21875 260.332031 101.746094 L 264.71875 89.867188 C 265.582031 87.558594 264.738281 84.988281 262.679688 83.628906 C 258.972656 81.199219 255.082031 78.953125 251.109375 76.933594 C 248.90625 75.824219 246.226562 76.378906 244.664062 78.273438 L 236.53125 88.074219 C 234.863281 90.09375 232.679688 89.515625 232.0625 89.269531 C 231.445312 89.042969 229.40625 88.09375 229.425781 85.480469 L 229.46875 72.734375 C 229.488281 70.285156 227.800781 68.144531 225.410156 67.585938 C 221.085938 66.578125 216.640625 65.796875 212.234375 65.28125 C 209.761719 64.953125 207.476562 66.433594 206.652344 68.742188 L 202.390625 80.640625 C 201.503906 83.132812 199.261719 83.320312 198.601562 83.320312 C 197.945312 83.320312 195.699219 83.132812 194.8125 80.640625 L 190.550781 68.742188 C 189.726562 66.433594 187.441406 64.972656 184.992188 65.28125 C 180.585938 65.777344 176.140625 66.558594 171.792969 67.585938 C 169.40625 68.144531 167.71875 70.285156 167.738281 72.734375 L 167.800781 85.480469 C 167.800781 88.09375 165.761719 89.042969 165.144531 89.269531 C 164.527344 89.496094 162.363281 90.074219 160.675781 88.054688 L 152.542969 78.273438 C 150.976562 76.378906 148.320312 75.824219 146.117188 76.933594 C 142.101562 78.953125 138.210938 81.21875 134.527344 83.628906 C 132.488281 84.988281 131.621094 87.558594 132.488281 89.867188 L 136.894531 101.746094 C 137.800781 104.21875 136.214844 105.804688 135.699219 106.214844 C 135.183594 106.648438 133.351562 107.945312 131.085938 106.605469 L 120.152344 100.222656 C 118.035156 98.988281 115.355469 99.378906 113.667969 101.148438 C 110.496094 104.527344 107.59375 107.964844 105.019531 111.402344 C 103.539062 113.378906 103.621094 116.097656 105.207031 117.972656 L 113.441406 127.691406 C 115.128906 129.6875 114.183594 131.726562 113.851562 132.28125 C 113.523438 132.859375 112.246094 134.710938 109.652344 134.238281 L 97.132812 131.953125 C 94.746094 131.542969 92.335938 132.796875 91.347656 135.0625 C 89.597656 139.117188 88.074219 143.339844 86.796875 147.601562 C 86.078125 149.949219 87.085938 152.480469 89.226562 153.695312 L 100.265625 159.996094 C 102.550781 161.292969 102.34375 163.519531 102.242188 164.175781 C 102.117188 164.835938 101.539062 167 98.964844 167.453125 L 86.425781 169.59375 C 84.019531 170.003906 82.207031 172.042969 82.0625 174.492188 C 81.9375 176.71875 81.855469 178.960938 81.855469 181.207031 C 81.855469 183.449219 81.9375 185.695312 82.0625 187.917969 C 82.207031 190.367188 84.019531 192.40625 86.425781 192.820312 L 98.964844 194.960938 C 101.539062 195.414062 102.117188 197.574219 102.242188 198.234375 C 102.34375 198.894531 102.550781 201.117188 100.265625 202.414062 L 89.226562 208.714844 C 87.085938 209.929688 86.078125 212.441406 86.796875 214.808594 C 88.074219 219.09375 89.617188 223.3125 91.347656 227.347656 C 92.316406 229.59375 94.703125 230.871094 97.132812 230.457031 L 109.652344 228.171875 C 112.226562 227.699219 113.523438 229.53125 113.851562 230.109375 C 114.183594 230.683594 115.128906 232.722656 113.441406 234.71875 L 105.207031 244.4375 C 103.621094 246.3125 103.539062 249.03125 105 250.988281 C 107.574219 254.425781 110.476562 257.886719 113.648438 261.242188 C 115.335938 263.03125 118.035156 263.425781 120.152344 262.1875 L 131.085938 255.804688 C 133.351562 254.46875 135.183594 255.765625 135.699219 256.195312 C 136.195312 256.609375 137.800781 258.195312 136.875 260.664062 L 132.488281 272.546875 C 131.621094 274.851562 132.46875 277.425781 134.527344 278.785156 C 138.210938 281.214844 142.101562 283.457031 146.097656 285.476562 C 148.300781 286.589844 150.957031 286.03125 152.542969 284.136719 L 160.675781 274.335938 C 162.34375 272.339844 164.527344 272.917969 165.144531 273.144531 C 165.761719 273.367188 167.800781 274.316406 167.777344 276.929688 L 167.738281 289.675781 C 167.71875 292.128906 169.40625 294.269531 171.792969 294.824219 C 176.117188 295.832031 180.566406 296.617188 184.972656 297.128906 C 185.199219 297.152344 185.382812 297.171875 185.589844 297.171875 C 187.792969 297.171875 189.789062 295.792969 190.550781 293.671875 L 194.8125 281.769531 C 195.699219 279.277344 197.945312 279.09375 198.601562 279.09375 C 199.261719 279.09375 201.503906 279.277344 202.390625 281.769531 L 206.652344 293.671875 C 207.476562 295.976562 209.78125 297.4375 212.210938 297.128906 C 216.617188 296.636719 221.066406 295.855469 225.410156 294.824219 C 227.800781 294.269531 229.488281 292.128906 229.46875 289.675781 L 229.40625 276.929688 C 229.40625 274.316406 231.445312 273.367188 232.0625 273.144531 C 232.679688 272.917969 234.839844 272.320312 236.53125 274.359375 L 244.664062 284.136719 C 246.226562 286.03125 248.882812 286.589844 251.085938 285.476562 C 255.101562 283.457031 258.992188 281.195312 262.679688 278.785156 C 264.140625 277.816406 264.964844 276.191406 265.007812 274.523438 L 290.003906 296.039062 C 293.113281 298.714844 296.984375 300.054688 300.832031 300.054688 " fill-opacity="1" fill-rule="nonzero"/><path fill="#df5745" d="M 196.605469 112.25 C 197.222656 112.515625 197.921875 112.679688 198.601562 112.679688 C 199.980469 112.679688 201.339844 112.105469 202.351562 111.15625 C 203.296875 110.148438 203.875 108.789062 203.875 107.410156 C 203.875 106.03125 203.296875 104.671875 202.351562 103.660156 C 200.867188 102.199219 198.539062 101.769531 196.605469 102.550781 C 195.90625 102.816406 195.328125 103.1875 194.855469 103.660156 C 193.90625 104.671875 193.332031 106.03125 193.332031 107.410156 C 193.332031 108.789062 193.90625 110.148438 194.855469 111.15625 C 195.328125 111.628906 195.90625 112 196.605469 112.25 " fill-opacity="1" fill-rule="nonzero"/><path fill="#df5745" d="M 134.710938 149.578125 C 136.089844 149.578125 137.449219 149.003906 138.398438 148.054688 C 139.40625 147.046875 139.980469 145.6875 139.980469 144.308594 C 139.980469 142.929688 139.40625 141.570312 138.398438 140.558594 C 136.460938 138.605469 132.921875 138.605469 130.964844 140.558594 C 129.976562 141.570312 129.441406 142.929688 129.441406 144.308594 C 129.441406 145.6875 129.976562 147.046875 130.964844 148.054688 C 131.972656 149.003906 133.289062 149.578125 134.710938 149.578125 " fill-opacity="1" fill-rule="nonzero"/><path fill="#df5745" d="M 130.964844 214.355469 C 129.976562 215.367188 129.441406 216.722656 129.441406 218.105469 C 129.441406 219.484375 129.976562 220.84375 130.964844 221.851562 C 131.910156 222.796875 133.289062 223.375 134.671875 223.375 C 136.089844 223.375 137.449219 222.796875 138.398438 221.851562 C 139.40625 220.84375 139.980469 219.484375 139.980469 218.105469 C 139.980469 216.722656 139.40625 215.367188 138.398438 214.355469 C 136.460938 212.402344 132.921875 212.402344 130.964844 214.355469 " fill-opacity="1" fill-rule="nonzero"/><path fill="#df5745" d="M 203.441406 253.003906 C 203.339844 252.675781 203.195312 252.367188 202.96875 252.097656 C 202.761719 251.789062 202.554688 251.523438 202.351562 251.253906 C 200.394531 249.296875 196.851562 249.296875 194.855469 251.253906 C 193.90625 252.265625 193.332031 253.621094 193.332031 255.003906 C 193.332031 256.382812 193.90625 257.742188 194.855469 258.75 C 195.863281 259.695312 197.222656 260.273438 198.601562 260.273438 C 199.980469 260.273438 201.339844 259.695312 202.351562 258.75 C 202.554688 258.480469 202.761719 258.214844 202.96875 257.945312 C 203.195312 257.636719 203.339844 257.328125 203.441406 257 C 203.605469 256.691406 203.707031 256.382812 203.769531 256.050781 C 203.8125 255.683594 203.875 255.3125 203.875 255.003906 C 203.875 254.632812 203.8125 254.324219 203.769531 253.953125 C 203.707031 253.621094 203.605469 253.3125 203.441406 253.003906 " fill-opacity="1" fill-rule="nonzero"/><path fill="#df5745" d="M 262.492188 149.578125 C 263.914062 149.578125 265.230469 149.003906 266.222656 148.054688 C 267.230469 147.046875 267.804688 145.6875 267.804688 144.308594 C 267.804688 142.929688 267.230469 141.570312 266.222656 140.558594 C 264.285156 138.605469 260.742188 138.605469 258.789062 140.558594 C 257.800781 141.570312 257.265625 142.929688 257.265625 144.308594 C 257.265625 145.6875 257.800781 147.046875 258.789062 148.054688 C 259.734375 149.003906 261.113281 149.578125 262.492188 149.578125 " fill-opacity="1" fill-rule="nonzero"/></svg>