<svg xmlns="http://www.w3.org/2000/svg" xmlns:xlink="http://www.w3.org/1999/xlink" width="500" zoomAndPan="magnify" viewBox="0 0 375 374.999991" height="500" preserveAspectRatio="xMidYMid meet" version="1.0"><defs><clipPath id="bf22716fb7"><path d="M 134.5 95.722656 L 318.613281 95.722656 L 318.613281 279.457031 L 134.5 279.457031 Z M 134.5 95.722656 " clip-rule="nonzero"/></clipPath></defs><path fill="#ff3131" d="M 96.765625 210.429688 L 72.457031 207.277344 C 72.457031 207.277344 65.703125 200.527344 70.65625 198.726562 L 94.066406 199.625 C 94.066406 199.625 96.316406 199.175781 97.667969 202.777344 C 97.667969 202.777344 102.621094 210.429688 96.765625 210.429688 Z M 154.75 223.421875 C 150.585938 223.882812 143.652344 224.65625 143.652344 224.65625 C 141.566406 224.890625 139.519531 224.292969 137.878906 222.984375 C 136.242188 221.675781 135.210938 219.804688 134.980469 217.71875 C 134.980469 217.71875 130.597656 178.394531 130.597656 178.394531 C 130.367188 176.308594 130.960938 174.257812 132.269531 172.617188 C 132.640625 172.15625 133.054688 171.746094 133.507812 171.382812 L 88.457031 171.449219 L 96.328125 139.707031 C 96.328125 139.707031 97.332031 133.894531 101.625 134.796875 L 147.917969 134.796875 C 149.730469 132.53125 151.710938 130.054688 153.667969 127.605469 L 100.667969 127.605469 C 89.652344 127.605469 88.917969 132.984375 88.917969 132.984375 L 79.359375 165.410156 C 76.457031 165.410156 70.316406 165.410156 70.050781 165.410156 C 66.949219 165.414062 61.824219 171.820312 65.996094 173.511719 C 66 173.515625 70.15625 175.203125 74 176.765625 C 67.480469 183.199219 59.652344 189.65625 58.425781 199.171875 C 57.605469 205.554688 56.660156 214.191406 58.773438 221.089844 C 59.121094 222.230469 59.558594 223.316406 60.085938 224.34375 L 60.085938 255.421875 C 60.085938 257.910156 62.105469 259.925781 64.589844 259.925781 L 88.003906 259.925781 C 90.492188 259.925781 92.503906 257.910156 92.503906 255.421875 L 92.503906 236.070312 C 93.246094 236.039062 93.980469 236.023438 94.695312 236.027344 C 113.488281 236.175781 130.875 236.351562 149.699219 236.40625 L 149.699219 236.410156 C 149.914062 236.410156 150.132812 236.410156 150.347656 236.40625 C 150.566406 236.410156 150.785156 236.410156 151 236.410156 L 151 236.40625 C 151.445312 236.402344 151.886719 236.402344 152.328125 236.402344 L 157.996094 229.308594 C 156.835938 227.390625 155.75 225.421875 154.75 223.421875 " fill-opacity="1" fill-rule="nonzero"/><g clip-path="url(#bf22716fb7)"><path fill="#ff3131" d="M 294.832031 198.945312 C 293.957031 204.214844 292.453125 209.398438 290.363281 214.355469 C 289.746094 215.8125 290.175781 217.5 291.410156 218.488281 L 301.832031 226.820312 L 281.53125 252.207031 L 271.113281 243.875 C 269.878906 242.890625 268.136719 242.839844 266.851562 243.761719 C 262.476562 246.890625 257.75 249.5 252.804688 251.511719 C 251.339844 252.109375 250.449219 253.605469 250.625 255.175781 L 252.097656 268.425781 L 219.792969 272.023438 L 218.316406 258.773438 C 218.140625 257.203125 216.945312 255.941406 215.386719 255.679688 C 210.117188 254.804688 204.933594 253.300781 199.976562 251.210938 C 198.519531 250.597656 196.828125 251.023438 195.84375 252.261719 L 187.511719 262.679688 L 162.125 242.382812 L 170.453125 231.960938 C 171.441406 230.726562 171.488281 228.984375 170.570312 227.699219 C 167.4375 223.324219 164.832031 218.597656 162.816406 213.652344 C 162.222656 212.1875 160.726562 211.296875 159.15625 211.472656 L 145.90625 212.949219 L 142.308594 180.644531 L 155.554688 179.167969 C 157.125 178.992188 158.390625 177.796875 158.648438 176.234375 C 159.527344 170.96875 161.03125 165.78125 163.121094 160.824219 C 163.734375 159.371094 163.304688 157.683594 162.070312 156.695312 L 151.648438 148.363281 L 171.949219 122.976562 L 182.367188 131.308594 C 183.601562 132.296875 185.34375 132.34375 186.632812 131.421875 C 191.007812 128.292969 195.730469 125.683594 200.679688 123.671875 C 202.144531 123.074219 203.035156 121.578125 202.859375 120.007812 L 201.382812 106.757812 L 233.6875 103.160156 L 235.164062 116.410156 C 235.339844 117.980469 236.535156 119.242188 238.097656 119.503906 C 243.367188 120.378906 248.550781 121.882812 253.507812 123.972656 C 254.960938 124.585938 256.652344 124.160156 257.636719 122.921875 L 265.96875 112.503906 L 291.359375 132.800781 L 283.027344 143.222656 C 282.039062 144.457031 281.992188 146.199219 282.914062 147.484375 C 286.042969 151.855469 288.648438 156.582031 290.664062 161.53125 C 291.261719 162.996094 292.757812 163.886719 294.328125 163.710938 L 307.578125 162.234375 L 311.175781 194.539062 L 297.925781 196.011719 C 296.355469 196.1875 295.09375 197.386719 294.832031 198.945312 Z M 310.304688 154.820312 L 296.148438 156.398438 C 294.464844 152.644531 292.464844 149.027344 290.183594 145.585938 L 299.082031 134.453125 C 300.300781 132.929688 300.054688 130.707031 298.53125 129.488281 L 267.625 104.777344 C 266.097656 103.558594 263.875 103.808594 262.660156 105.332031 L 253.757812 116.460938 C 249.898438 114.992188 245.925781 113.839844 241.898438 113.023438 L 240.320312 98.867188 C 240.101562 96.925781 238.355469 95.527344 236.417969 95.746094 L 197.089844 100.128906 C 195.148438 100.34375 193.753906 102.089844 193.96875 104.03125 L 195.546875 118.183594 C 191.796875 119.871094 188.175781 121.871094 184.734375 124.152344 L 173.601562 115.25 C 172.078125 114.03125 169.855469 114.28125 168.636719 115.804688 L 143.925781 146.710938 C 142.707031 148.234375 142.953125 150.457031 144.476562 151.675781 L 155.609375 160.578125 C 154.140625 164.4375 152.988281 168.410156 152.167969 172.4375 L 138.011719 174.015625 C 136.074219 174.230469 134.675781 175.976562 134.890625 177.914062 L 139.273438 217.242188 C 139.488281 219.183594 141.238281 220.578125 143.175781 220.363281 L 157.332031 218.785156 C 159.015625 222.535156 161.015625 226.15625 163.296875 229.597656 L 154.398438 240.726562 C 153.179688 242.253906 153.425781 244.476562 154.953125 245.695312 L 185.859375 270.40625 C 187.382812 271.625 189.605469 271.375 190.824219 269.851562 L 199.722656 258.71875 C 203.582031 260.1875 207.554688 261.34375 211.585938 262.160156 L 213.160156 276.316406 C 213.378906 278.253906 215.125 279.652344 217.066406 279.4375 L 256.394531 275.054688 C 258.332031 274.839844 259.726562 273.09375 259.511719 271.152344 L 257.933594 256.996094 C 261.6875 255.3125 265.304688 253.3125 268.75 251.03125 L 279.878906 259.933594 C 281.402344 261.148438 283.625 260.902344 284.847656 259.378906 L 309.558594 228.472656 C 310.777344 226.949219 310.527344 224.722656 309.003906 223.507812 L 297.871094 214.605469 C 299.339844 210.746094 300.492188 206.777344 301.3125 202.746094 L 315.46875 201.171875 C 317.410156 200.953125 318.804688 199.207031 318.589844 197.265625 L 314.210938 157.941406 C 313.992188 156 312.246094 154.605469 310.304688 154.820312 " fill-opacity="1" fill-rule="nonzero"/></g><path fill="#ff3131" d="M 274.382812 217.910156 L 250.617188 192.253906 L 237.921875 191.25 L 236.914062 190.15625 L 249.433594 177.167969 L 261.734375 176.941406 L 270.300781 168.058594 L 271.449219 154.554688 L 269.753906 152.917969 L 257.058594 166.085938 L 247.957031 157.3125 L 260.652344 144.144531 L 258.859375 142.414062 L 245.402344 144.058594 L 236.839844 152.945312 L 237.066406 165.246094 L 225.222656 177.535156 L 207.050781 157.914062 L 206.234375 153.417969 L 195.800781 144.6875 L 190.261719 149.816406 L 198.167969 160.886719 L 202.589844 162.046875 L 220.996094 181.917969 L 182.078125 222.292969 L 181.742188 229 L 187.71875 234.757812 L 194.445312 234.210938 L 232.6875 194.542969 L 233.460938 195.378906 L 233.496094 208.109375 L 257.257812 233.765625 L 269.5625 234.757812 L 274.425781 230.253906 L 274.382812 217.910156 " fill-opacity="1" fill-rule="nonzero"/></svg>