<svg xmlns="http://www.w3.org/2000/svg" xmlns:xlink="http://www.w3.org/1999/xlink" width="500" zoomAndPan="magnify" viewBox="0 0 375 374.999991" height="500" preserveAspectRatio="xMidYMid meet" version="1.0"><defs><clipPath id="6ff6ca0a08"><path d="M 0 97 L 375 97 L 375 245.792969 L 0 245.792969 Z M 0 97 " clip-rule="nonzero"/></clipPath></defs><g clip-path="url(#6ff6ca0a08)"><path fill="#ff3131" d="M 205.238281 107.652344 L 207.644531 99.332031 C 207.417969 99.269531 206.839844 99.980469 206.289062 100.125 C 205.726562 100.273438 198.933594 100.183594 197.980469 99.949219 C 197.03125 99.71875 197.007812 97.796875 196.226562 97.65625 C 196.199219 97.652344 196.175781 97.664062 196.148438 97.683594 L 191.984375 112.019531 L 196.636719 112.425781 Z M 192.90625 111.605469 C 192.871094 111.722656 192.746094 111.796875 192.625 111.761719 C 192.507812 111.722656 192.441406 111.597656 192.472656 111.480469 C 192.503906 111.363281 192.632812 111.292969 192.75 111.328125 C 192.871094 111.363281 192.9375 111.484375 192.90625 111.605469 Z M 204.886719 106.988281 C 205.007812 107.023438 205.074219 107.148438 205.039062 107.269531 C 205.003906 107.386719 204.878906 107.457031 204.761719 107.421875 C 204.640625 107.386719 204.574219 107.261719 204.605469 107.144531 C 204.640625 107.023438 204.765625 106.953125 204.886719 106.988281 Z M 197.746094 102.542969 L 198.273438 102.527344 C 198.539062 102.589844 198.765625 102.753906 198.917969 102.980469 C 199.121094 102.664062 199.460938 102.566406 199.84375 102.554688 C 200.222656 102.542969 200.566406 102.617188 200.769531 102.917969 C 200.972656 102.601562 201.3125 102.503906 201.691406 102.492188 C 202.074219 102.480469 202.414062 102.554688 202.621094 102.855469 C 202.773438 102.621094 203 102.441406 203.261719 102.359375 L 203.761719 102.34375 C 204.289062 102.328125 204.71875 102.796875 204.71875 103.386719 C 204.722656 103.984375 204.296875 104.480469 203.769531 104.496094 L 197.753906 104.695312 C 197.222656 104.710938 196.792969 104.246094 196.792969 103.648438 C 196.796875 103.058594 197.222656 102.558594 197.746094 102.542969 Z M 196.539062 112.078125 C 196.421875 112.042969 196.351562 111.917969 196.386719 111.796875 C 196.421875 111.679688 196.546875 111.609375 196.667969 111.644531 C 196.785156 111.679688 196.855469 111.804688 196.820312 111.921875 C 196.78125 112.042969 196.65625 112.113281 196.539062 112.078125 Z M 123.988281 205.867188 L 135.65625 205.867188 L 135.65625 193.484375 L 123.988281 193.484375 Z M 196.667969 111.742188 L 196.605469 111.722656 L 196.578125 111.820312 L 196.484375 111.792969 L 196.46875 111.855469 L 196.5625 111.878906 L 196.535156 111.976562 L 196.59375 111.996094 L 196.621094 111.898438 L 196.71875 111.929688 L 196.738281 111.867188 L 196.640625 111.839844 Z M 286.429688 238.914062 L 310.320312 226.503906 L 304.429688 219.140625 L 286.429688 213.5 L 286.429688 204.363281 L 298.050781 204.363281 L 281.605469 181.191406 L 298.5625 169.949219 L 303.273438 170.265625 L 294.808594 157.46875 L 293.261719 161.933594 L 276.042969 173.347656 L 261.300781 152.578125 L 262.890625 150.441406 C 262.890625 150.441406 264.011719 146.152344 266.023438 143.398438 C 266.746094 142.40625 269.671875 141.453125 269.671875 141.453125 L 271.578125 138.929688 L 269.59375 137.363281 L 283.359375 119.882812 L 284.753906 119.429688 L 288.394531 115.160156 L 286.824219 113.921875 L 286.765625 113.875 L 286.703125 113.828125 L 285.136719 112.589844 L 281.839844 117.128906 L 281.726562 118.59375 L 267.960938 136.074219 L 265.980469 134.511719 L 263.972656 136.953125 C 263.972656 136.953125 263.730469 140.027344 262.9375 140.960938 C 260.730469 143.5625 256.828125 145.65625 256.828125 145.65625 L 256.589844 145.941406 L 250.613281 137.519531 L 242.859375 137.519531 C 246.890625 130.546875 251.199219 123.082031 251.199219 123.082031 C 251.824219 122.003906 253.769531 122.386719 255.429688 119.714844 C 256.757812 117.574219 255.945312 114.742188 253.765625 113.480469 C 251.585938 112.21875 248.726562 112.925781 247.539062 115.144531 C 246.054688 117.917969 247.355469 119.414062 246.734375 120.492188 C 246.734375 120.492188 241.273438 129.949219 236.898438 137.519531 L 226.734375 137.519531 L 226.734375 128.167969 L 208.269531 128.167969 L 208.269531 137.519531 L 190.164062 137.519531 L 190.171875 137.5 L 190.660156 137.46875 L 190.390625 137.0625 L 190.414062 137.023438 L 190.898438 136.996094 L 190.632812 136.589844 L 190.652344 136.546875 L 191.136719 136.523438 L 190.871094 136.117188 L 190.894531 136.074219 L 191.378906 136.046875 L 191.113281 135.644531 L 191.132812 135.601562 L 191.617188 135.574219 L 191.351562 135.171875 L 191.371094 135.128906 L 191.855469 135.101562 L 191.59375 134.695312 L 191.613281 134.65625 L 192.09375 134.625 L 191.832031 134.222656 L 191.851562 134.179688 L 192.332031 134.152344 L 192.070312 133.746094 L 192.09375 133.703125 L 192.570312 133.675781 L 192.308594 133.273438 L 192.332031 133.226562 L 192.8125 133.199219 L 192.546875 132.796875 L 192.570312 132.75 L 193.054688 132.722656 L 192.789062 132.320312 L 192.8125 132.277344 L 193.292969 132.246094 L 193.03125 131.847656 L 193.054688 131.800781 L 193.53125 131.773438 L 193.269531 131.371094 L 193.292969 131.324219 L 193.769531 131.296875 L 193.507812 130.894531 L 193.53125 130.847656 L 194.011719 130.820312 L 193.746094 130.421875 L 193.769531 130.375 L 194.25 130.34375 L 193.988281 129.945312 L 194.015625 129.894531 L 194.492188 129.871094 L 194.230469 129.46875 L 194.253906 129.421875 L 194.726562 129.390625 L 194.46875 128.992188 L 194.492188 128.941406 L 194.964844 128.917969 L 194.707031 128.519531 L 194.730469 128.46875 L 195.207031 128.445312 L 194.945312 128.046875 L 194.972656 127.996094 L 195.449219 127.96875 L 195.1875 127.574219 L 195.214844 127.523438 L 195.6875 127.496094 L 195.425781 127.097656 L 195.453125 127.046875 L 195.925781 127.019531 L 195.667969 126.625 L 195.691406 126.570312 L 196.164062 126.546875 L 195.90625 126.148438 L 195.933594 126.097656 L 196.40625 126.066406 L 196.148438 125.671875 L 196.171875 125.617188 L 196.644531 125.589844 L 196.386719 125.199219 L 196.414062 125.144531 L 196.886719 125.117188 L 196.628906 124.722656 L 196.65625 124.667969 L 197.125 124.640625 L 196.871094 124.246094 L 196.898438 124.191406 L 197.367188 124.167969 L 197.109375 123.773438 L 197.136719 123.71875 L 197.605469 123.691406 L 197.347656 123.300781 L 197.375 123.246094 L 197.84375 123.21875 L 197.585938 122.828125 L 197.617188 122.769531 L 198.082031 122.742188 L 197.828125 122.355469 L 197.855469 122.296875 L 198.320312 122.269531 L 198.066406 121.878906 L 198.09375 121.820312 L 198.558594 121.796875 L 198.304688 121.40625 L 198.332031 121.347656 L 198.796875 121.320312 L 198.539062 120.929688 L 198.570312 120.871094 L 199.035156 120.84375 L 198.78125 120.457031 L 198.8125 120.394531 L 199.273438 120.367188 L 199.023438 119.980469 L 199.050781 119.921875 L 199.515625 119.894531 L 199.261719 119.503906 L 199.292969 119.445312 L 199.757812 119.417969 L 199.5 119.03125 L 199.53125 118.96875 L 199.996094 118.941406 L 199.742188 118.554688 L 199.773438 118.496094 L 200.234375 118.46875 L 199.984375 118.082031 L 200.015625 118.019531 L 200.476562 117.992188 L 200.222656 117.605469 L 200.253906 117.546875 L 200.714844 117.515625 L 200.460938 117.132812 L 200.496094 117.066406 L 200.957031 117.042969 L 200.703125 116.65625 L 200.734375 116.589844 L 201.195312 116.566406 L 200.941406 116.179688 L 200.976562 116.117188 L 201.433594 116.089844 L 201.179688 115.707031 L 201.214844 115.640625 L 201.671875 115.617188 L 201.421875 115.234375 L 201.453125 115.167969 L 201.914062 115.144531 L 201.664062 114.757812 L 201.695312 114.691406 L 202.152344 114.664062 L 201.902344 114.285156 L 201.933594 114.21875 L 202.390625 114.191406 L 202.140625 113.808594 L 202.171875 113.742188 L 202.628906 113.71875 L 202.378906 113.335938 L 202.410156 113.269531 L 202.867188 113.246094 L 202.617188 112.863281 L 202.652344 112.796875 L 203.105469 112.769531 L 202.855469 112.390625 L 202.890625 112.324219 L 203.34375 112.296875 L 203.09375 111.917969 L 203.128906 111.847656 L 203.582031 111.820312 L 203.335938 111.441406 L 203.371094 111.375 L 203.824219 111.347656 L 203.574219 110.96875 L 203.609375 110.898438 L 204.0625 110.871094 L 203.8125 110.492188 L 203.847656 110.421875 L 204.300781 110.394531 L 204.050781 110.019531 L 204.085938 109.945312 L 204.539062 109.921875 L 204.289062 109.542969 L 204.324219 109.472656 L 204.777344 109.445312 L 204.527344 109.070312 L 204.566406 109 L 205.019531 108.972656 L 204.769531 108.597656 L 204.808594 108.527344 L 205.257812 108.5 L 205.046875 108.179688 L 196.734375 112.789062 L 191.898438 112.371094 L 184.597656 137.511719 L 163.109375 137.511719 C 161.617188 134.730469 159.636719 130.820312 159.175781 128.902344 C 158.222656 124.878906 162.855469 119.945312 162.855469 119.945312 L 162.757812 119.550781 L 147.929688 123.089844 L 148.019531 123.484375 C 148.019531 123.484375 154.382812 125.796875 155.339844 129.824219 C 155.714844 131.402344 155.773438 134.65625 155.738281 137.519531 L 135.054688 137.519531 C 133.574219 135.558594 132.007812 133.648438 130.328125 131.714844 C 130.25 131.535156 130.039062 131.476562 129.800781 131.480469 L 127.757812 128.964844 C 127.605469 128.730469 127.203125 128.75 126.730469 128.921875 C 126.855469 129.023438 126.96875 129.128906 127.082031 129.230469 C 127.101562 129.246094 127.117188 129.261719 127.132812 129.277344 C 127.359375 129.570312 127.375 130.085938 126.746094 130.65625 C 126.433594 130.9375 126.054688 131.152344 125.6875 131.230469 C 125.339844 131.300781 125.007812 131.253906 124.761719 131.019531 C 124.730469 130.988281 124.523438 130.800781 124.433594 130.71875 C 124.363281 130.882812 124.339844 131.039062 124.378906 131.175781 L 124.378906 131.179688 C 124.398438 131.222656 124.414062 131.265625 124.445312 131.308594 C 124.464844 131.339844 126.460938 134.175781 126.460938 134.175781 C 126.449219 134.308594 126.46875 134.433594 126.523438 134.546875 L 126.519531 134.546875 C 126.527344 134.558594 126.535156 134.570312 126.535156 134.578125 C 126.546875 134.597656 126.554688 134.621094 126.570312 134.636719 C 126.570312 134.640625 126.578125 134.644531 126.578125 134.644531 C 127.140625 135.617188 127.691406 136.570312 128.234375 137.511719 L 121.410156 137.511719 L 107.097656 157.25 C 100.386719 151.328125 92.296875 144.179688 91.164062 143.179688 C 89.183594 141.433594 91.46875 136.824219 86.875 132.773438 C 84.730469 130.875 80.753906 129.398438 78.214844 130.195312 L 82.75 134.199219 C 84.421875 135.671875 84.617188 137.566406 82.800781 139.628906 C 80.980469 141.691406 79.082031 141.734375 77.410156 140.257812 L 74.113281 137.34375 C 73.640625 139.964844 74.367188 142.640625 76.515625 144.535156 C 81.105469 148.589844 85.386719 145.746094 87.363281 147.496094 C 88.519531 148.515625 96.917969 155.933594 103.707031 161.925781 L 89.0625 182.121094 L 56.179688 165.066406 L 55.453125 164.65625 L 50.324219 173.726562 L 81.320312 192.796875 L 72.9375 204.351562 L 84.558594 204.351562 L 84.558594 207.792969 C 84.222656 207.558594 83.804688 207.410156 83.347656 207.371094 L 79.976562 207.078125 C 79.390625 207.027344 78.847656 206.96875 78.425781 207.328125 C 78.203125 207.511719 78.023438 207.738281 77.886719 207.992188 L 70.605469 207.363281 C 68.074219 207.140625 65.664062 207.785156 63.667969 209.042969 L 62.585938 204.382812 L 72.222656 202.140625 C 73.140625 201.925781 73.710938 201.007812 73.496094 200.089844 C 73.285156 199.171875 72.367188 198.601562 71.449219 198.8125 L 60.152344 201.441406 C 59.234375 201.65625 58.664062 202.574219 58.878906 203.488281 L 60.820312 211.871094 L 60.03125 212.730469 C 59.777344 213.152344 59.550781 213.59375 59.351562 214.050781 L 58.371094 214.957031 L 56.550781 212.570312 L 54.347656 214.605469 L 52.527344 212.222656 L 50.328125 214.257812 L 48.609375 212.003906 L 48.511719 211.875 L 46.308594 213.914062 L 44.492188 211.527344 L 42.289062 213.5625 L 40.472656 211.179688 L 38.273438 213.21875 L 36.453125 210.832031 L 34.25 212.871094 L 32.429688 210.484375 L 30.230469 212.519531 L 28.410156 210.136719 L 26.210938 212.171875 L 24.390625 209.789062 L 22.191406 211.824219 L 20.371094 209.441406 L 18.171875 211.476562 L 16.351562 209.09375 L 14.152344 211.128906 L 12.335938 208.746094 L 9.730469 211.160156 C 5.160156 210.835938 1.160156 214.148438 0.773438 218.605469 C 0.382812 223.101562 3.828125 227.085938 8.449219 227.492188 L 10.414062 230.050781 L 12.621094 228.015625 L 14.453125 230.402344 L 16.664062 228.367188 L 18.488281 230.75 L 20.699219 228.714844 L 22.53125 231.101562 L 24.738281 229.066406 L 26.566406 231.449219 L 28.777344 229.414062 L 30.605469 231.796875 L 32.816406 229.761719 L 34.644531 232.148438 L 36.851562 230.113281 L 38.679688 232.5 L 40.890625 230.460938 L 42.71875 232.847656 L 44.898438 230.839844 L 46.703125 233.191406 L 46.730469 233.167969 L 46.757812 233.199219 L 46.78125 233.175781 L 46.785156 233.117188 L 48.910156 231.15625 L 50.738281 233.542969 L 52.949219 231.507812 L 54.777344 233.894531 L 56.988281 231.859375 L 57.1875 232.121094 C 57.113281 233.230469 57.9375 234.195312 59.046875 234.292969 L 84.554688 236.5 L 84.554688 240.832031 C 62.15625 242.074219 42.914062 243.773438 28.234375 245.789062 L 320.023438 245.789062 C 310.589844 244.492188 299.273438 243.328125 286.441406 242.332031 L 286.441406 238.914062 Z M 308.441406 225.738281 C 308.664062 225.621094 308.9375 225.707031 309.054688 225.929688 C 309.171875 226.152344 309.082031 226.429688 308.859375 226.546875 C 308.640625 226.660156 308.363281 226.570312 308.246094 226.351562 C 308.132812 226.128906 308.214844 225.851562 308.441406 225.738281 Z M 303.453125 219.570312 C 303.671875 219.453125 303.953125 219.542969 304.066406 219.765625 C 304.179688 219.988281 304.09375 220.261719 303.871094 220.378906 C 303.648438 220.496094 303.375 220.40625 303.257812 220.183594 C 303.144531 219.960938 303.230469 219.683594 303.453125 219.570312 Z M 286.429688 223.179688 L 291.597656 228.261719 C 292.359375 229.011719 292.273438 230.292969 291.410156 231.121094 C 290.542969 231.953125 289.222656 232.023438 288.464844 231.277344 L 287.707031 230.527344 C 287.433594 230.054688 287.355469 229.492188 287.46875 228.953125 C 287.089844 229.023438 286.75 228.96875 286.433594 228.824219 L 286.433594 223.179688 Z M 56.285156 223.417969 C 56.09375 225.625 54.09375 227.257812 51.828125 227.058594 L 15.417969 223.90625 L 8.800781 223.335938 C 6.535156 223.136719 4.847656 221.1875 5.039062 218.980469 C 5.226562 216.773438 7.226562 215.140625 9.492188 215.335938 L 45.902344 218.492188 L 52.519531 219.0625 C 54.785156 219.257812 56.476562 221.210938 56.285156 223.417969 Z M 80.132812 229.355469 L 68.953125 228.386719 C 68.710938 228.367188 68.53125 228.152344 68.550781 227.90625 C 68.574219 227.664062 68.789062 227.484375 69.03125 227.503906 L 80.210938 228.472656 C 80.453125 228.492188 80.632812 228.707031 80.609375 228.953125 C 80.589844 229.199219 80.375 229.378906 80.132812 229.355469 Z M 80.414062 226.097656 L 69.238281 225.125 C 68.992188 225.105469 68.8125 224.890625 68.835938 224.648438 C 68.855469 224.40625 69.070312 224.226562 69.3125 224.246094 L 80.492188 225.214844 C 80.734375 225.238281 80.914062 225.453125 80.894531 225.695312 C 80.871094 225.9375 80.65625 226.117188 80.414062 226.097656 Z M 80.695312 222.832031 L 69.519531 221.867188 C 69.273438 221.84375 69.09375 221.628906 69.117188 221.386719 C 69.136719 221.144531 69.351562 220.964844 69.597656 220.984375 L 80.773438 221.953125 C 81.015625 221.972656 81.195312 222.1875 81.175781 222.429688 C 81.152344 222.675781 80.9375 222.855469 80.695312 222.832031 Z M 85.804688 146.605469 C 86.621094 146.625 87.773438 145.980469 88.734375 144.890625 C 89.695312 143.800781 90.191406 142.574219 90.066406 141.765625 C 90.40625 142.496094 89.945312 143.851562 88.902344 145.039062 C 87.855469 146.226562 86.566406 146.851562 85.804688 146.605469 Z M 89.988281 147.609375 C 89.519531 147.195312 89.503906 146.453125 89.945312 145.945312 C 90.390625 145.441406 91.128906 145.363281 91.597656 145.777344 L 106.113281 158.597656 L 106.050781 158.683594 L 91.636719 145.949219 C 91.175781 145.542969 90.464844 145.589844 90.054688 146.058594 C 89.644531 146.523438 89.6875 147.230469 90.148438 147.636719 L 104.722656 160.511719 L 104.675781 160.578125 Z M 154.511719 233.890625 L 90.457031 233.890625 L 90.457031 197.570312 L 122.828125 150.34375 L 154.511719 197.570312 Z M 248.496094 116.628906 L 248.496094 115.707031 L 249.296875 115.246094 L 249.757812 114.445312 L 250.679688 114.445312 L 251.480469 113.984375 L 252.28125 114.449219 L 253.203125 114.449219 L 253.664062 115.25 L 254.460938 115.714844 L 254.460938 116.636719 L 254.921875 117.4375 L 254.460938 118.238281 L 254.457031 119.164062 L 253.660156 119.625 L 253.199219 120.421875 L 252.277344 120.421875 L 251.476562 120.882812 L 250.675781 120.421875 L 249.753906 120.421875 L 249.292969 119.617188 L 248.496094 119.15625 L 248.496094 118.234375 L 248.035156 117.433594 Z M 247.140625 119.628906 C 247.234375 120.335938 247.929688 121.195312 248.972656 121.796875 C 250.011719 122.402344 251.105469 122.574219 251.765625 122.304688 C 251.199219 122.746094 250.003906 122.628906 248.871094 121.972656 C 247.738281 121.316406 247.039062 120.335938 247.140625 119.628906 Z M 246.734375 123.4375 C 247.015625 122.953125 247.664062 122.804688 248.1875 123.109375 C 248.710938 123.410156 248.90625 124.050781 248.625 124.535156 L 241.121094 137.523438 L 241.039062 137.523438 L 248.480469 124.640625 C 248.757812 124.164062 248.589844 123.546875 248.105469 123.265625 C 247.625 122.988281 247.007812 123.148438 246.730469 123.628906 L 238.703125 137.523438 L 238.59375 137.523438 Z M 224.5625 198.769531 L 224.5625 233.890625 L 202.859375 233.890625 L 202.859375 198.660156 L 224.570312 170.347656 L 246.273438 170.828125 L 224.570312 198.765625 Z M 260.507812 230.179688 L 239.707031 230.179688 L 239.707031 206.082031 L 260.507812 206.082031 Z M 303.382812 163.144531 L 331.195312 174.109375 C 331.601562 174.269531 332.058594 174.222656 332.421875 173.980469 L 343.347656 166.734375 C 343.960938 166.324219 344.132812 165.492188 343.722656 164.878906 L 341.628906 161.707031 L 339.398438 163.183594 L 340.75 165.238281 L 331.519531 171.359375 L 303.707031 160.394531 C 303.296875 160.238281 302.84375 160.285156 302.476562 160.527344 L 299.101562 162.765625 L 300.578125 165 Z M 347.015625 157.339844 L 316.472656 111.164062 L 302.535156 120.40625 L 333.074219 166.582031 Z M 346.25 193.933594 L 346.027344 194.882812 L 345.9375 194.910156 L 345.222656 194.242188 L 345.003906 195.195312 L 344.910156 195.222656 L 344.199219 194.554688 L 343.976562 195.503906 L 343.882812 195.53125 L 343.171875 194.867188 L 342.949219 195.8125 L 342.855469 195.839844 L 342.144531 195.175781 L 341.921875 196.121094 L 341.824219 196.152344 L 341.117188 195.488281 L 340.898438 196.433594 L 340.796875 196.464844 L 340.089844 195.800781 L 339.871094 196.746094 L 339.769531 196.777344 L 339.0625 196.109375 L 338.84375 197.058594 L 338.746094 197.085938 L 338.035156 196.425781 L 337.816406 197.367188 L 337.71875 197.398438 L 337.011719 196.738281 L 336.792969 197.679688 L 336.691406 197.710938 L 335.984375 197.050781 L 335.765625 197.992188 L 335.664062 198.023438 L 334.960938 197.363281 L 334.742188 198.304688 L 334.636719 198.335938 L 333.933594 197.675781 L 333.714844 198.613281 L 333.609375 198.644531 L 332.90625 197.984375 L 332.6875 198.925781 L 332.582031 198.957031 L 331.878906 198.300781 L 331.664062 199.238281 L 331.554688 199.269531 L 330.855469 198.609375 L 330.636719 199.546875 L 330.53125 199.578125 L 329.832031 198.925781 L 329.609375 199.859375 L 329.503906 199.890625 L 328.800781 199.238281 L 328.582031 200.167969 L 328.472656 200.203125 L 327.777344 199.546875 L 327.5625 200.476562 L 327.449219 200.511719 L 326.75 199.859375 L 326.535156 200.789062 L 326.421875 200.824219 L 325.726562 200.167969 L 325.507812 201.097656 L 325.394531 201.132812 L 324.699219 200.480469 L 324.484375 201.410156 L 324.371094 201.445312 L 323.671875 200.792969 L 323.457031 201.722656 L 323.34375 201.757812 L 322.648438 201.105469 L 322.433594 202.03125 L 322.316406 202.066406 L 321.625 201.417969 L 321.40625 202.339844 L 321.289062 202.375 L 320.597656 201.726562 L 320.378906 202.652344 L 320.261719 202.6875 L 319.570312 202.039062 L 319.355469 202.960938 L 319.234375 203 L 318.542969 202.351562 L 318.328125 203.273438 L 318.203125 203.3125 L 317.515625 202.667969 L 317.300781 203.585938 L 317.175781 203.625 L 316.488281 202.980469 L 316.273438 203.894531 L 316.148438 203.933594 L 315.460938 203.285156 L 315.246094 204.203125 L 315.121094 204.242188 L 314.433594 203.597656 L 314.21875 204.519531 L 314.09375 204.554688 L 313.40625 203.914062 L 313.195312 204.828125 L 313.066406 204.867188 L 312.382812 204.226562 L 312.167969 205.136719 L 312.042969 205.179688 L 311.355469 204.535156 L 311.140625 205.449219 L 311.011719 205.488281 L 310.328125 204.847656 L 310.117188 205.757812 L 309.988281 205.800781 L 309.300781 205.160156 L 309.09375 206.070312 L 308.960938 206.113281 L 308.277344 205.476562 L 308.066406 206.382812 L 307.933594 206.421875 L 307.25 205.789062 L 307.042969 206.691406 L 306.90625 206.734375 L 306.226562 206.097656 L 306.015625 207.003906 L 305.878906 207.042969 L 305.199219 206.40625 L 304.992188 207.3125 L 304.851562 207.355469 L 304.171875 206.71875 L 303.964844 207.621094 L 303.828125 207.664062 L 303.148438 207.027344 L 302.9375 207.933594 L 302.800781 207.976562 L 302.121094 207.339844 L 301.914062 208.242188 L 301.773438 208.285156 L 301.097656 207.652344 L 300.886719 208.554688 L 300.746094 208.597656 L 300.070312 207.96875 L 299.863281 208.867188 L 299.71875 208.910156 L 299.046875 208.277344 L 298.835938 209.175781 L 298.691406 209.21875 L 298.019531 208.589844 L 297.808594 209.488281 L 297.667969 209.53125 L 296.996094 208.898438 L 296.785156 209.796875 L 296.640625 209.839844 L 295.96875 209.214844 L 295.761719 210.105469 L 295.613281 210.148438 L 294.941406 209.523438 L 294.734375 210.417969 L 294.582031 210.460938 L 293.914062 209.832031 L 293.707031 210.722656 L 293.558594 210.769531 L 292.886719 210.144531 L 292.679688 211.035156 L 292.53125 211.082031 L 291.863281 210.453125 L 291.65625 211.34375 L 291.503906 211.386719 L 290.835938 210.765625 L 290.628906 211.65625 L 290.480469 211.699219 L 289.808594 211.078125 L 289.601562 211.964844 L 289.449219 212.011719 L 288.78125 211.386719 L 288.578125 212.273438 L 288.421875 212.324219 L 287.757812 211.699219 L 287.550781 212.585938 L 287.394531 212.628906 L 286.730469 212.007812 L 286.558594 212.757812 L 304.867188 218.496094 L 310.992188 226.15625 L 374.644531 193.089844 L 371.523438 187.066406 L 370.871094 186.457031 L 370.644531 187.4375 L 370.578125 187.457031 L 369.84375 186.769531 L 369.617188 187.746094 L 369.550781 187.769531 L 368.816406 187.082031 L 368.59375 188.058594 L 368.527344 188.078125 L 367.792969 187.394531 L 367.566406 188.367188 L 367.5 188.386719 L 366.765625 187.703125 L 366.542969 188.675781 L 366.472656 188.699219 L 365.742188 188.015625 L 365.511719 188.988281 L 365.445312 189.007812 L 364.714844 188.324219 L 364.492188 189.296875 L 364.417969 189.320312 L 363.691406 188.636719 L 363.464844 189.605469 L 363.390625 189.628906 L 362.664062 188.949219 L 362.441406 189.917969 L 362.367188 189.941406 L 361.636719 189.261719 L 361.410156 190.230469 L 361.339844 190.253906 L 360.609375 189.570312 L 360.382812 190.542969 L 360.3125 190.5625 L 359.585938 189.878906 L 359.359375 190.847656 L 359.285156 190.871094 L 358.558594 190.195312 L 358.335938 191.160156 L 358.257812 191.183594 L 357.53125 190.503906 L 357.308594 191.46875 L 357.230469 191.492188 L 356.507812 190.816406 L 356.28125 191.78125 L 356.199219 191.804688 L 355.476562 191.132812 L 355.25 192.09375 L 355.171875 192.117188 L 354.449219 191.441406 L 354.230469 192.402344 L 354.144531 192.429688 L 353.421875 191.753906 L 353.203125 192.710938 L 353.113281 192.738281 L 352.398438 192.066406 L 352.171875 193.023438 L 352.085938 193.050781 L 351.371094 192.375 L 351.148438 193.332031 L 351.058594 193.359375 L 350.34375 192.683594 L 350.117188 193.644531 L 350.03125 193.667969 L 349.3125 192.996094 L 349.089844 193.953125 L 349 193.980469 L 348.285156 193.308594 L 348.0625 194.261719 L 347.976562 194.289062 L 347.261719 193.621094 L 347.035156 194.578125 L 346.945312 194.601562 Z M 192.757812 111.425781 L 192.695312 111.40625 L 192.667969 111.503906 L 192.570312 111.476562 L 192.550781 111.539062 L 192.648438 111.566406 L 192.617188 111.660156 L 192.679688 111.675781 L 192.707031 111.582031 L 192.804688 111.609375 L 192.820312 111.550781 L 192.726562 111.519531 Z M 204.753906 107.324219 L 204.820312 107.339844 L 204.847656 107.242188 L 204.941406 107.269531 L 204.960938 107.210938 L 204.863281 107.183594 L 204.894531 107.085938 L 204.832031 107.066406 L 204.804688 107.160156 L 204.707031 107.136719 L 204.691406 107.195312 L 204.785156 107.226562 Z M 115.84375 124.347656 C 115.859375 125.832031 115.242188 126.914062 116.421875 128.316406 C 118.683594 131 119.992188 130.226562 123.46875 129.757812 C 124.082031 129.671875 124.539062 130.34375 125.019531 130.726562 C 125.578125 131.269531 127.183594 130.023438 126.796875 129.53125 C 125.777344 128.609375 124.605469 127.839844 123.328125 127.929688 C 122.027344 128.015625 120.488281 129.039062 119.316406 128.472656 C 117.363281 127.527344 117.910156 125.03125 115.84375 124.347656 Z M 303.636719 220.0625 L 303.726562 220.242188 L 303.84375 220.179688 L 303.75 220 L 303.929688 219.910156 L 303.871094 219.792969 L 303.691406 219.886719 L 303.597656 219.707031 L 303.484375 219.765625 L 303.578125 219.945312 L 303.398438 220.039062 L 303.457031 220.152344 Z M 108.285156 205.867188 L 119.949219 205.867188 L 119.949219 193.484375 L 108.285156 193.484375 Z M 108.285156 222.53125 L 119.949219 222.53125 L 119.949219 210.148438 L 108.285156 210.148438 Z M 123.988281 222.53125 L 135.65625 222.53125 L 135.65625 210.148438 L 123.988281 210.148438 Z M 52.34375 221.796875 L 9.40625 218.078125 C 8.652344 218.011719 7.984375 218.574219 7.921875 219.328125 C 7.855469 220.085938 8.414062 220.753906 9.171875 220.816406 L 52.105469 224.535156 C 52.863281 224.597656 53.527344 224.039062 53.589844 223.28125 C 53.65625 222.527344 53.097656 221.863281 52.34375 221.796875 Z M 147.824219 122.730469 L 162.65625 119.191406 L 161.09375 112.617188 L 146.261719 116.15625 Z M 108.3125 124.46875 C 109.773438 128.515625 114.460938 130.949219 116.863281 129.367188 C 116.621094 129.144531 116.375 128.882812 116.117188 128.574219 C 115.144531 127.417969 115.257812 126.410156 115.367188 125.433594 C 115.402344 125.117188 115.4375 124.792969 115.4375 124.453125 L 103.34375 100.289062 L 115.796875 123.949219 C 115.855469 123.941406 115.914062 123.945312 115.96875 123.964844 C 117.207031 124.375 117.644531 125.363281 118.027344 126.234375 C 118.125 126.457031 118.222656 126.671875 118.328125 126.878906 C 119.113281 123.875 119.167969 118.503906 116.910156 115.175781 C 112.617188 108.84375 107.9375 104 103.097656 97.839844 C 102.078125 96.542969 100.824219 97.226562 101.21875 98.867188 C 103.285156 107.546875 105.324219 116.175781 108.3125 124.46875 Z M 161.007812 112.257812 L 158.738281 102.726562 L 158.085938 102.882812 L 158.746094 105.867188 L 157.921875 102.921875 L 157.027344 103.136719 L 158.390625 109.21875 L 156.746094 103.203125 L 156.199219 103.335938 L 157.058594 107.21875 L 155.984375 103.386719 L 153.613281 103.949219 L 154.210938 106.652344 L 153.464844 103.984375 L 152.894531 104.121094 L 153.753906 108.003906 L 152.679688 104.171875 L 149.871094 104.84375 L 150.664062 108.429688 L 149.671875 104.890625 L 149.054688 105.039062 L 149.917969 108.921875 L 148.84375 105.089844 L 146.648438 105.613281 L 147.566406 109.761719 L 146.417969 105.667969 L 145.160156 105.96875 L 145.863281 109.140625 L 144.984375 106.011719 L 143.910156 106.265625 L 146.175781 115.796875 Z M 308.621094 226.230469 L 308.714844 226.410156 L 308.832031 226.351562 L 308.738281 226.167969 L 308.917969 226.078125 L 308.859375 225.964844 L 308.679688 226.054688 L 308.585938 225.875 L 308.472656 225.933594 L 308.566406 226.113281 L 308.386719 226.210938 L 308.445312 226.324219 Z M 44.386719 188.84375 L 46.121094 187.777344 C 46.121094 187.777344 38.558594 180.515625 41.898438 174.609375 C 43.949219 170.976562 48.300781 172.71875 49.691406 173.394531 L 54.828125 164.308594 C 54.753906 164.273438 54.6875 164.238281 54.617188 164.203125 C 51.9375 162.683594 51.15625 157.925781 53.042969 154.925781 C 55.183594 151.511719 57.375 150.464844 57.375 150.464844 L 59.84375 146.101562 L 48.050781 139.417969 L 45.308594 144.265625 C 46.136719 146.035156 46.066406 148.320312 44.929688 150.328125 C 43.792969 152.335938 41.878906 153.570312 39.933594 153.769531 L 39.132812 155.195312 C 39.132812 155.195312 36.640625 158.816406 33.15625 165.757812 C 29.109375 173.832031 44.386719 188.84375 44.386719 188.84375 Z M 44.386719 188.84375 " fill-opacity="1" fill-rule="nonzero"/></g></svg>