<svg width="457" height="79" viewBox="0 0 457 79" fill="none" xmlns="http://www.w3.org/2000/svg">
<rect x="32" y="16" width="15" height="49" fill="#1F1F1F"/>
<rect x="32" y="16" width="15" height="49" fill="#1F1F1F"/>
<rect x="32" y="16" width="15" height="49" fill="#B30000"/>
<rect x="15" y="9" width="49" height="16" fill="#1F1F1F"/>
<rect x="15" y="9" width="49" height="16" fill="#1F1F1F"/>
<rect x="15" y="9" width="49" height="16" fill="#1F1F1F"/>
<path d="M35.1348 24.7281L53.3848 24.7777L51.4193 32.967L35.1348 24.7281Z" fill="white"/>
<g filter="url(#filter0_d_1147_3401)">
<rect x="4.5" y="0.5" width="70" height="70" rx="7.5" stroke="black" stroke-miterlimit="3.8637" stroke-linejoin="round" shape-rendering="crispEdges"/>
</g>
<rect x="15" y="9" width="49" height="16" fill="#1F1F1F"/>
<rect x="15" y="9" width="49" height="16" fill="#A90000"/>
<rect x="15" y="9" width="49" height="16" fill="#A80000"/>
<path d="M105.031 13.5V59H101.219V13.5H105.031ZM120.625 13.5V16.8125H85.6562V13.5H120.625ZM155.5 13.5H159.344V44.3125C159.344 47.7292 158.625 50.5729 157.188 52.8438C155.75 55.1146 153.812 56.8125 151.375 57.9375C148.958 59.0625 146.281 59.625 143.344 59.625C140.323 59.625 137.604 59.0625 135.188 57.9375C132.771 56.8125 130.854 55.1146 129.438 52.8438C128.042 50.5729 127.344 47.7292 127.344 44.3125V13.5H131.156V44.3125C131.156 46.9583 131.677 49.1771 132.719 50.9688C133.76 52.7604 135.198 54.1042 137.031 55C138.865 55.8958 140.969 56.3438 143.344 56.3438C145.698 56.3438 147.792 55.8958 149.625 55C151.458 54.1042 152.896 52.7604 153.938 50.9688C154.979 49.1771 155.5 46.9583 155.5 44.3125V13.5ZM170.062 13.5H184.844C187.99 13.5 190.719 14.0104 193.031 15.0312C195.344 16.0521 197.125 17.5625 198.375 19.5625C199.646 21.5417 200.281 23.9792 200.281 26.875C200.281 29.0208 199.823 30.9688 198.906 32.7188C198.01 34.4688 196.771 35.9375 195.188 37.125C193.604 38.2917 191.771 39.0938 189.688 39.5312L188.344 40.0312H172.562L172.5 36.75H185.719C188.094 36.75 190.073 36.2917 191.656 35.375C193.24 34.4583 194.427 33.25 195.219 31.75C196.031 30.2292 196.438 28.6042 196.438 26.875C196.438 24.8125 195.99 23.0312 195.094 21.5312C194.219 20.0104 192.917 18.8438 191.188 18.0312C189.458 17.2188 187.344 16.8125 184.844 16.8125H173.906V59H170.062V13.5ZM198.156 59L186.375 38.6562L190.5 38.625L202.25 58.5938V59H198.156ZM226.5 37.125H213.688L213.625 33.875H224.656C226.906 33.875 228.823 33.5521 230.406 32.9062C231.99 32.2604 233.188 31.3021 234 30.0312C234.833 28.7396 235.25 27.1562 235.25 25.2812C235.25 23.3646 234.844 21.7812 234.031 20.5312C233.219 19.2604 232 18.3229 230.375 17.7188C228.75 17.1146 226.708 16.8125 224.25 16.8125H214.688V59H210.844V13.5H224.25C226.562 13.5 228.635 13.7292 230.469 14.1875C232.302 14.6458 233.865 15.3646 235.156 16.3438C236.448 17.3229 237.427 18.5625 238.094 20.0625C238.781 21.5417 239.125 23.3125 239.125 25.375C239.125 27.25 238.708 28.9479 237.875 30.4688C237.042 31.9688 235.865 33.1979 234.344 34.1562C232.844 35.0938 231.042 35.6771 228.938 35.9062L226.5 37.125ZM226.219 59H212.469L214.438 55.7188H226.219C228.469 55.7188 230.385 55.3438 231.969 54.5938C233.573 53.8229 234.802 52.7292 235.656 51.3125C236.51 49.8958 236.938 48.2083 236.938 46.25C236.938 44.5208 236.562 42.9688 235.812 41.5938C235.062 40.2188 233.917 39.1354 232.375 38.3438C230.833 37.5312 228.875 37.125 226.5 37.125H218.531L218.594 33.875H229.875L230.562 35.0312C232.604 35.2396 234.385 35.875 235.906 36.9375C237.448 37.9792 238.635 39.3021 239.469 40.9062C240.323 42.5104 240.75 44.2708 240.75 46.1875C240.75 48.9375 240.135 51.2708 238.906 53.1875C237.698 55.0833 236 56.5312 233.812 57.5312C231.646 58.5104 229.115 59 226.219 59ZM283.688 33.8125V38.6875C283.688 41.875 283.271 44.7604 282.438 47.3438C281.625 49.9062 280.438 52.1042 278.875 53.9375C277.333 55.7708 275.479 57.1771 273.312 58.1562C271.146 59.1354 268.708 59.625 266 59.625C263.354 59.625 260.938 59.1354 258.75 58.1562C256.583 57.1771 254.719 55.7708 253.156 53.9375C251.594 52.1042 250.385 49.9062 249.531 47.3438C248.677 44.7604 248.25 41.875 248.25 38.6875V33.8125C248.25 30.625 248.667 27.75 249.5 25.1875C250.354 22.6042 251.562 20.3958 253.125 18.5625C254.688 16.7292 256.552 15.3229 258.719 14.3438C260.885 13.3646 263.292 12.875 265.938 12.875C268.646 12.875 271.083 13.3646 273.25 14.3438C275.417 15.3229 277.281 16.7292 278.844 18.5625C280.406 20.3958 281.604 22.6042 282.438 25.1875C283.271 27.75 283.688 30.625 283.688 33.8125ZM279.875 38.6875V33.75C279.875 31.0625 279.562 28.6458 278.938 26.5C278.333 24.3542 277.427 22.5208 276.219 21C275.031 19.4792 273.573 18.3125 271.844 17.5C270.115 16.6875 268.146 16.2812 265.938 16.2812C263.792 16.2812 261.865 16.6875 260.156 17.5C258.448 18.3125 256.99 19.4792 255.781 21C254.594 22.5208 253.677 24.3542 253.031 26.5C252.406 28.6458 252.094 31.0625 252.094 33.75V38.6875C252.094 41.3958 252.406 43.8333 253.031 46C253.677 48.1458 254.604 49.9896 255.812 51.5312C257.021 53.0521 258.479 54.2188 260.188 55.0312C261.917 55.8438 263.854 56.25 266 56.25C268.229 56.25 270.198 55.8438 271.906 55.0312C273.615 54.2188 275.062 53.0521 276.25 51.5312C277.438 49.9896 278.333 48.1458 278.938 46C279.562 43.8333 279.875 41.3958 279.875 38.6875Z" fill="black"/>
<path d="M332.844 35.4688V53.1875C332.177 54.0417 331.125 54.9688 329.688 55.9688C328.271 56.9688 326.417 57.8333 324.125 58.5625C321.833 59.2708 319.021 59.625 315.688 59.625C312.792 59.625 310.146 59.1458 307.75 58.1875C305.354 57.2083 303.292 55.7812 301.562 53.9062C299.833 52.0312 298.5 49.7396 297.562 47.0312C296.625 44.3229 296.156 41.2292 296.156 37.75V34.75C296.156 31.2708 296.594 28.1771 297.469 25.4688C298.365 22.7604 299.635 20.4688 301.281 18.5938C302.948 16.7188 304.938 15.2917 307.25 14.3125C309.583 13.3333 312.188 12.8438 315.062 12.8438C318.917 12.8438 322.083 13.4792 324.562 14.75C327.062 16.0208 328.979 17.7708 330.312 20C331.646 22.2083 332.479 24.75 332.812 27.625H324.438C324.208 26.0417 323.75 24.6562 323.062 23.4688C322.375 22.2604 321.396 21.3229 320.125 20.6562C318.875 19.9688 317.25 19.625 315.25 19.625C313.562 19.625 312.073 19.9583 310.781 20.625C309.49 21.2917 308.406 22.2604 307.531 23.5312C306.656 24.8021 305.99 26.375 305.531 28.25C305.094 30.125 304.875 32.2708 304.875 34.6875V37.75C304.875 40.1875 305.125 42.3542 305.625 44.25C306.125 46.125 306.844 47.7083 307.781 49C308.74 50.2708 309.917 51.2396 311.312 51.9062C312.729 52.5521 314.333 52.875 316.125 52.875C317.75 52.875 319.094 52.7396 320.156 52.4688C321.24 52.1771 322.104 51.8333 322.75 51.4375C323.396 51.0417 323.896 50.6562 324.25 50.2812V41.75H315.219V35.4688H332.844ZM371.125 52.25V59H346.938V52.25H371.125ZM349.562 13.5V59H340.969V13.5H349.562ZM367.969 32.2812V38.875H346.938V32.2812H367.969ZM371.031 13.5V20.2812H346.938V13.5H371.031ZM395.188 20.4062L382.219 59H373.125L390.125 13.5H395.938L395.188 20.4062ZM406.031 59L393 20.4062L392.219 13.5H398.062L415.156 59H406.031ZM405.438 42.0938V48.875H381.031V42.0938H405.438ZM419.844 13.5H436.375C439.833 13.5 442.802 14.0208 445.281 15.0625C447.76 16.1042 449.667 17.6458 451 19.6875C452.333 21.7292 453 24.2396 453 27.2188C453 29.5729 452.583 31.6146 451.75 33.3438C450.917 35.0729 449.74 36.5208 448.219 37.6875C446.719 38.8542 444.948 39.7708 442.906 40.4375L440.219 41.8125H425.625L425.562 35.0312H436.469C438.24 35.0312 439.708 34.7188 440.875 34.0938C442.042 33.4688 442.917 32.6042 443.5 31.5C444.104 30.3958 444.406 29.1354 444.406 27.7188C444.406 26.1979 444.115 24.8854 443.531 23.7812C442.948 22.6562 442.062 21.7917 440.875 21.1875C439.688 20.5833 438.188 20.2812 436.375 20.2812H428.438V59H419.844V13.5ZM445.531 59L435 38.625L444.094 38.5938L454.75 58.5625V59H445.531Z" fill="black"/>
<defs>
<filter id="filter0_d_1147_3401" x="0" y="0" width="79" height="79" filterUnits="userSpaceOnUse" color-interpolation-filters="sRGB">
<feFlood flood-opacity="0" result="BackgroundImageFix"/>
<feColorMatrix in="SourceAlpha" type="matrix" values="0 0 0 0 0 0 0 0 0 0 0 0 0 0 0 0 0 0 127 0" result="hardAlpha"/>
<feOffset dy="4"/>
<feGaussianBlur stdDeviation="2"/>
<feComposite in2="hardAlpha" operator="out"/>
<feColorMatrix type="matrix" values="0 0 0 0 0 0 0 0 0 0 0 0 0 0 0 0 0 0 0.25 0"/>
<feBlend mode="normal" in2="BackgroundImageFix" result="effect1_dropShadow_1147_3401"/>
<feBlend mode="normal" in="SourceGraphic" in2="effect1_dropShadow_1147_3401" result="shape"/>
</filter>
</defs>
</svg>
